<?xml version="1.0" encoding="us-ascii" standalone="no"?><svg xmlns="http://www.w3.org/2000/svg" xmlns:xlink="http://www.w3.org/1999/xlink" contentStyleType="text/css" height="283px" preserveAspectRatio="none" style="width:398px;height:283px;background:#FFFFFF;" version="1.1" viewBox="0 0 398 283" width="398px" zoomAndPan="magnify"><defs/><g><!--class Developer--><g id="elem_Developer"><rect codeLine="1" fill="#F1F1F1" height="80.5938" id="Developer" rx="2.5" ry="2.5" style="stroke:#181818;stroke-width:0.5;" width="107" x="7" y="31"/><ellipse cx="22" cy="47" fill="#ADD1B2" rx="11" ry="11" style="stroke:#181818;stroke-width:1.0;"/><path d="M20.7969,47.875 L22.25,47.875 L22.25,47.9844 C22.25,48.3906 22.2813,48.5469 22.3594,48.7031 C22.5156,48.9531 22.7969,49.1094 23.0938,49.1094 C23.3438,49.1094 23.6094,48.9688 23.7656,48.75 C23.8906,48.5938 23.9219,48.4375 23.9219,47.9844 L23.9219,46.0625 C23.9219,45.9063 23.9219,45.8594 23.9063,45.7031 C23.8438,45.2344 23.5313,44.9219 23.0781,44.9219 C22.8281,44.9219 22.5625,45.0625 22.3906,45.2813 C22.2813,45.4531 22.25,45.6094 22.25,46.0625 L22.25,46.1875 L20.7969,46.1875 L20.7969,43.7813 L24.7813,43.7813 L24.7813,44.6406 C24.7813,45.0469 24.8125,45.2188 24.8906,45.375 C25.0625,45.625 25.3438,45.7813 25.625,45.7813 C25.8906,45.7813 26.1563,45.6406 26.3281,45.4219 C26.4375,45.25 26.4688,45.1094 26.4688,44.6406 L26.4688,42.0938 L18.8438,42.0938 C18.4063,42.0938 18.2813,42.1094 18.125,42.2031 C17.875,42.3594 17.7188,42.6563 17.7188,42.9375 C17.7188,43.2188 17.8594,43.4688 18.0781,43.6406 C18.2344,43.75 18.4219,43.7813 18.8438,43.7813 L19.0938,43.7813 L19.0938,50.2969 L18.8438,50.2969 C18.4375,50.2969 18.2813,50.3125 18.125,50.4219 C17.875,50.5938 17.7188,50.8594 17.7188,51.1563 C17.7188,51.4219 17.8594,51.6719 18.0781,51.8281 C18.2188,51.9531 18.4531,52 18.8438,52 L26.8438,52 L26.8438,49.4219 C26.8438,48.9844 26.8125,48.8438 26.7344,48.6875 C26.5625,48.4375 26.2813,48.2813 26,48.2813 C25.7344,48.2813 25.4688,48.3906 25.2969,48.6406 C25.1875,48.7969 25.1563,48.9375 25.1563,49.4219 L25.1563,50.2969 L20.7969,50.2969 L20.7969,47.875 Z " fill="#000000"/><text fill="#000000" font-family="sans-serif" font-size="14" lengthAdjust="spacing" textLength="75" x="36" y="51.8467">Developer</text><line style="stroke:#181818;stroke-width:0.5;" x1="8" x2="113" y1="63" y2="63"/><ellipse cx="18" cy="76.6484" fill="none" rx="3" ry="3" style="stroke:#038048;stroke-width:1.0;"/><text fill="#000000" font-family="sans-serif" font-size="14" lengthAdjust="spacing" textLength="13" x="27" y="79.9951">id</text><text fill="#000000" font-family="sans-serif" font-size="14" lengthAdjust="spacing" textLength="40" x="27" y="96.292">name</text><line style="stroke:#181818;stroke-width:0.5;" x1="8" x2="113" y1="103.5938" y2="103.5938"/></g><!--class Repository--><g id="elem_Repository"><rect codeLine="6" fill="#F1F1F1" height="129.4844" id="Repository" rx="2.5" ry="2.5" style="stroke:#181818;stroke-width:0.5;" width="111" x="149" y="7"/><ellipse cx="164" cy="23" fill="#ADD1B2" rx="11" ry="11" style="stroke:#181818;stroke-width:1.0;"/><path d="M162.7969,23.875 L164.25,23.875 L164.25,23.9844 C164.25,24.3906 164.2813,24.5469 164.3594,24.7031 C164.5156,24.9531 164.7969,25.1094 165.0938,25.1094 C165.3438,25.1094 165.6094,24.9688 165.7656,24.75 C165.8906,24.5938 165.9219,24.4375 165.9219,23.9844 L165.9219,22.0625 C165.9219,21.9063 165.9219,21.8594 165.9063,21.7031 C165.8438,21.2344 165.5313,20.9219 165.0781,20.9219 C164.8281,20.9219 164.5625,21.0625 164.3906,21.2813 C164.2813,21.4531 164.25,21.6094 164.25,22.0625 L164.25,22.1875 L162.7969,22.1875 L162.7969,19.7813 L166.7813,19.7813 L166.7813,20.6406 C166.7813,21.0469 166.8125,21.2188 166.8906,21.375 C167.0625,21.625 167.3438,21.7813 167.625,21.7813 C167.8906,21.7813 168.1563,21.6406 168.3281,21.4219 C168.4375,21.25 168.4688,21.1094 168.4688,20.6406 L168.4688,18.0938 L160.8438,18.0938 C160.4063,18.0938 160.2813,18.1094 160.125,18.2031 C159.875,18.3594 159.7188,18.6563 159.7188,18.9375 C159.7188,19.2188 159.8594,19.4688 160.0781,19.6406 C160.2344,19.75 160.4219,19.7813 160.8438,19.7813 L161.0938,19.7813 L161.0938,26.2969 L160.8438,26.2969 C160.4375,26.2969 160.2813,26.3125 160.125,26.4219 C159.875,26.5938 159.7188,26.8594 159.7188,27.1563 C159.7188,27.4219 159.8594,27.6719 160.0781,27.8281 C160.2188,27.9531 160.4531,28 160.8438,28 L168.8438,28 L168.8438,25.4219 C168.8438,24.9844 168.8125,24.8438 168.7344,24.6875 C168.5625,24.4375 168.2813,24.2813 168,24.2813 C167.7344,24.2813 167.4688,24.3906 167.2969,24.6406 C167.1875,24.7969 167.1563,24.9375 167.1563,25.4219 L167.1563,26.2969 L162.7969,26.2969 L162.7969,23.875 Z " fill="#000000"/><text fill="#000000" font-family="sans-serif" font-size="14" lengthAdjust="spacing" textLength="79" x="178" y="27.8467">Repository</text><line style="stroke:#181818;stroke-width:0.5;" x1="150" x2="259" y1="39" y2="39"/><ellipse cx="160" cy="52.6484" fill="none" rx="3" ry="3" style="stroke:#038048;stroke-width:1.0;"/><text fill="#000000" font-family="sans-serif" font-size="14" lengthAdjust="spacing" textLength="13" x="169" y="55.9951">id</text><text fill="#000000" font-family="sans-serif" font-size="14" lengthAdjust="spacing" textLength="40" x="169" y="72.292">name</text><text fill="#000000" font-family="sans-serif" font-size="14" lengthAdjust="spacing" textLength="58" x="169" y="88.5889">location</text><text fill="#000000" font-family="sans-serif" font-size="14" lengthAdjust="spacing" textLength="64" x="169" y="104.8857">owner_id</text><text fill="#000000" font-family="sans-serif" font-size="14" lengthAdjust="spacing" textLength="78" x="169" y="121.1826">created_at</text><line style="stroke:#181818;stroke-width:0.5;" x1="150" x2="259" y1="128.4844" y2="128.4844"/></g><!--class User--><g id="elem_User"><rect codeLine="14" fill="#F1F1F1" height="113.1875" id="User" rx="2.5" ry="2.5" style="stroke:#181818;stroke-width:0.5;" width="96" x="295.5" y="15"/><ellipse cx="325.35" cy="31" fill="#ADD1B2" rx="11" ry="11" style="stroke:#181818;stroke-width:1.0;"/><path d="M324.1469,31.875 L325.6,31.875 L325.6,31.9844 C325.6,32.3906 325.6313,32.5469 325.7094,32.7031 C325.8656,32.9531 326.1469,33.1094 326.4438,33.1094 C326.6938,33.1094 326.9594,32.9688 327.1156,32.75 C327.2406,32.5938 327.2719,32.4375 327.2719,31.9844 L327.2719,30.0625 C327.2719,29.9063 327.2719,29.8594 327.2563,29.7031 C327.1938,29.2344 326.8813,28.9219 326.4281,28.9219 C326.1781,28.9219 325.9125,29.0625 325.7406,29.2813 C325.6313,29.4531 325.6,29.6094 325.6,30.0625 L325.6,30.1875 L324.1469,30.1875 L324.1469,27.7813 L328.1313,27.7813 L328.1313,28.6406 C328.1313,29.0469 328.1625,29.2188 328.2406,29.375 C328.4125,29.625 328.6938,29.7813 328.975,29.7813 C329.2406,29.7813 329.5063,29.6406 329.6781,29.4219 C329.7875,29.25 329.8188,29.1094 329.8188,28.6406 L329.8188,26.0938 L322.1938,26.0938 C321.7563,26.0938 321.6313,26.1094 321.475,26.2031 C321.225,26.3594 321.0688,26.6563 321.0688,26.9375 C321.0688,27.2188 321.2094,27.4688 321.4281,27.6406 C321.5844,27.75 321.7719,27.7813 322.1938,27.7813 L322.4438,27.7813 L322.4438,34.2969 L322.1938,34.2969 C321.7875,34.2969 321.6313,34.3125 321.475,34.4219 C321.225,34.5938 321.0688,34.8594 321.0688,35.1563 C321.0688,35.4219 321.2094,35.6719 321.4281,35.8281 C321.5688,35.9531 321.8031,36 322.1938,36 L330.1938,36 L330.1938,33.4219 C330.1938,32.9844 330.1625,32.8438 330.0844,32.6875 C329.9125,32.4375 329.6313,32.2813 329.35,32.2813 C329.0844,32.2813 328.8188,32.3906 328.6469,32.6406 C328.5375,32.7969 328.5063,32.9375 328.5063,33.4219 L328.5063,34.2969 L324.1469,34.2969 L324.1469,31.875 Z " fill="#000000"/><text fill="#000000" font-family="sans-serif" font-size="14" lengthAdjust="spacing" textLength="31" x="342.65" y="35.8467">User</text><line style="stroke:#181818;stroke-width:0.5;" x1="296.5" x2="390.5" y1="47" y2="47"/><ellipse cx="306.5" cy="60.6484" fill="none" rx="3" ry="3" style="stroke:#038048;stroke-width:1.0;"/><text fill="#000000" font-family="sans-serif" font-size="14" lengthAdjust="spacing" textLength="13" x="315.5" y="63.9951">id</text><text fill="#000000" font-family="sans-serif" font-size="14" lengthAdjust="spacing" textLength="40" x="315.5" y="80.292">name</text><text fill="#000000" font-family="sans-serif" font-size="14" lengthAdjust="spacing" textLength="70" x="315.5" y="96.5889">username</text><text fill="#000000" font-family="sans-serif" font-size="14" lengthAdjust="spacing" textLength="28" x="315.5" y="112.8857">role</text><line style="stroke:#181818;stroke-width:0.5;" x1="296.5" x2="390.5" y1="120.1875" y2="120.1875"/></g><!--class Contributes--><g id="elem_Contributes"><rect codeLine="21" fill="#F1F1F1" height="80.5938" id="Contributes" rx="2.5" ry="2.5" style="stroke:#181818;stroke-width:0.5;" width="118" x="35.5" y="196"/><ellipse cx="50.5" cy="212" fill="#ADD1B2" rx="11" ry="11" style="stroke:#181818;stroke-width:1.0;"/><path d="M49.2969,212.875 L50.75,212.875 L50.75,212.9844 C50.75,213.3906 50.7813,213.5469 50.8594,213.7031 C51.0156,213.9531 51.2969,214.1094 51.5938,214.1094 C51.8438,214.1094 52.1094,213.9688 52.2656,213.75 C52.3906,213.5938 52.4219,213.4375 52.4219,212.9844 L52.4219,211.0625 C52.4219,210.9063 52.4219,210.8594 52.4063,210.7031 C52.3438,210.2344 52.0313,209.9219 51.5781,209.9219 C51.3281,209.9219 51.0625,210.0625 50.8906,210.2813 C50.7813,210.4531 50.75,210.6094 50.75,211.0625 L50.75,211.1875 L49.2969,211.1875 L49.2969,208.7813 L53.2813,208.7813 L53.2813,209.6406 C53.2813,210.0469 53.3125,210.2188 53.3906,210.375 C53.5625,210.625 53.8438,210.7813 54.125,210.7813 C54.3906,210.7813 54.6563,210.6406 54.8281,210.4219 C54.9375,210.25 54.9688,210.1094 54.9688,209.6406 L54.9688,207.0938 L47.3438,207.0938 C46.9063,207.0938 46.7813,207.1094 46.625,207.2031 C46.375,207.3594 46.2188,207.6563 46.2188,207.9375 C46.2188,208.2188 46.3594,208.4688 46.5781,208.6406 C46.7344,208.75 46.9219,208.7813 47.3438,208.7813 L47.5938,208.7813 L47.5938,215.2969 L47.3438,215.2969 C46.9375,215.2969 46.7813,215.3125 46.625,215.4219 C46.375,215.5938 46.2188,215.8594 46.2188,216.1563 C46.2188,216.4219 46.3594,216.6719 46.5781,216.8281 C46.7188,216.9531 46.9531,217 47.3438,217 L55.3438,217 L55.3438,214.4219 C55.3438,213.9844 55.3125,213.8438 55.2344,213.6875 C55.0625,213.4375 54.7813,213.2813 54.5,213.2813 C54.2344,213.2813 53.9688,213.3906 53.7969,213.6406 C53.6875,213.7969 53.6563,213.9375 53.6563,214.4219 L53.6563,215.2969 L49.2969,215.2969 L49.2969,212.875 Z " fill="#000000"/><text fill="#000000" font-family="sans-serif" font-size="14" lengthAdjust="spacing" textLength="86" x="64.5" y="216.8467">Contributes</text><line style="stroke:#181818;stroke-width:0.5;" x1="36.5" x2="152.5" y1="228" y2="228"/><text fill="#000000" font-family="sans-serif" font-size="14" lengthAdjust="spacing" textLength="93" x="41.5" y="244.9951">developer_id</text><text fill="#000000" font-family="sans-serif" font-size="14" lengthAdjust="spacing" textLength="95" x="41.5" y="261.292">repository_id</text><line style="stroke:#181818;stroke-width:0.5;" x1="36.5" x2="152.5" y1="268.5938" y2="268.5938"/></g><!--class Controls--><g id="elem_Controls"><rect codeLine="26" fill="#F1F1F1" height="80.5938" id="Controls" rx="2.5" ry="2.5" style="stroke:#181818;stroke-width:0.5;" width="107" x="256" y="196"/><ellipse cx="277.3" cy="212" fill="#ADD1B2" rx="11" ry="11" style="stroke:#181818;stroke-width:1.0;"/><path d="M276.0969,212.875 L277.55,212.875 L277.55,212.9844 C277.55,213.3906 277.5813,213.5469 277.6594,213.7031 C277.8156,213.9531 278.0969,214.1094 278.3938,214.1094 C278.6438,214.1094 278.9094,213.9688 279.0656,213.75 C279.1906,213.5938 279.2219,213.4375 279.2219,212.9844 L279.2219,211.0625 C279.2219,210.9063 279.2219,210.8594 279.2063,210.7031 C279.1438,210.2344 278.8313,209.9219 278.3781,209.9219 C278.1281,209.9219 277.8625,210.0625 277.6906,210.2813 C277.5813,210.4531 277.55,210.6094 277.55,211.0625 L277.55,211.1875 L276.0969,211.1875 L276.0969,208.7813 L280.0813,208.7813 L280.0813,209.6406 C280.0813,210.0469 280.1125,210.2188 280.1906,210.375 C280.3625,210.625 280.6438,210.7813 280.925,210.7813 C281.1906,210.7813 281.4563,210.6406 281.6281,210.4219 C281.7375,210.25 281.7688,210.1094 281.7688,209.6406 L281.7688,207.0938 L274.1438,207.0938 C273.7063,207.0938 273.5813,207.1094 273.425,207.2031 C273.175,207.3594 273.0188,207.6563 273.0188,207.9375 C273.0188,208.2188 273.1594,208.4688 273.3781,208.6406 C273.5344,208.75 273.7219,208.7813 274.1438,208.7813 L274.3938,208.7813 L274.3938,215.2969 L274.1438,215.2969 C273.7375,215.2969 273.5813,215.3125 273.425,215.4219 C273.175,215.5938 273.0188,215.8594 273.0188,216.1563 C273.0188,216.4219 273.1594,216.6719 273.3781,216.8281 C273.5188,216.9531 273.7531,217 274.1438,217 L282.1438,217 L282.1438,214.4219 C282.1438,213.9844 282.1125,213.8438 282.0344,213.6875 C281.8625,213.4375 281.5813,213.2813 281.3,213.2813 C281.0344,213.2813 280.7688,213.3906 280.5969,213.6406 C280.4875,213.7969 280.4563,213.9375 280.4563,214.4219 L280.4563,215.2969 L276.0969,215.2969 L276.0969,212.875 Z " fill="#000000"/><text fill="#000000" font-family="sans-serif" font-size="14" lengthAdjust="spacing" textLength="61" x="292.7" y="216.8467">Controls</text><line style="stroke:#181818;stroke-width:0.5;" x1="257" x2="362" y1="228" y2="228"/><text fill="#000000" font-family="sans-serif" font-size="14" lengthAdjust="spacing" textLength="50" x="262" y="244.9951">user_id</text><text fill="#000000" font-family="sans-serif" font-size="14" lengthAdjust="spacing" textLength="95" x="262" y="261.292">repository_id</text><line style="stroke:#181818;stroke-width:0.5;" x1="257" x2="362" y1="268.5938" y2="268.5938"/></g><!--link Developer to Contributes--><g id="link_Developer_Contributes"><path codeLine="31" d="M70.4509,120.2054 C75.7393,145.5584 77.251,152.8063 82.5342,178.1345 " fill="none" id="Developer-Contributes" style="stroke:#181818;stroke-width:1.0;"/><line style="stroke:#181818;stroke-width:1.0;" x1="65.7184" x2="73.5498" y1="117.1065" y2="115.4729"/><line style="stroke:#181818;stroke-width:1.0;" x1="66.3309" x2="74.1624" y1="120.0433" y2="118.4097"/><line style="stroke:#181818;stroke-width:1.0;" x1="70.4509" x2="68.8173" y1="120.2054" y2="112.374"/><line style="stroke:#181818;stroke-width:1.0;" x1="84.5761" x2="92.0833" y1="187.9238" y2="194.53"/><line style="stroke:#181818;stroke-width:1.0;" x1="84.5761" x2="80.3361" y1="187.9238" y2="196.9804"/><line style="stroke:#181818;stroke-width:1.0;" x1="84.5761" x2="86.2097" y1="187.9238" y2="195.7552"/><ellipse cx="83.351" cy="182.0502" fill="none" rx="4" ry="4" style="stroke:#181818;stroke-width:1.0;"/></g><!--link Repository to Contributes--><g id="link_Repository_Contributes"><path codeLine="32" d="M156.8659,143.0852 C143.3829,163.0642 143.4479,162.9677 131.4249,180.7836 " fill="none" id="Repository-Contributes" style="stroke:#181818;stroke-width:1.0;"/><line style="stroke:#181818;stroke-width:1.0;" x1="155.7878" x2="162.419" y1="137.532" y2="142.0072"/><line style="stroke:#181818;stroke-width:1.0;" x1="154.1096" x2="160.7409" y1="140.0188" y2="144.4939"/><line style="stroke:#181818;stroke-width:1.0;" x1="156.8659" x2="161.341" y1="143.0852" y2="136.454"/><line style="stroke:#181818;stroke-width:1.0;" x1="125.8311" x2="126.3294" y1="189.0726" y2="199.0602"/><line style="stroke:#181818;stroke-width:1.0;" x1="125.8311" x2="116.3826" y1="189.0726" y2="192.3476"/><line style="stroke:#181818;stroke-width:1.0;" x1="125.8311" x2="121.356" y1="189.0726" y2="195.7039"/><ellipse cx="129.1874" cy="184.0992" fill="none" rx="4" ry="4" style="stroke:#181818;stroke-width:1.0;"/></g><!--link User to Controls--><g id="link_User_Controls"><path codeLine="33" d="M330.2606,135.9705 C325.6246,158.1975 325.7003,157.8342 321.4593,178.167 " fill="none" id="User-Controls" style="stroke:#181818;stroke-width:1.0;"/><line style="stroke:#181818;stroke-width:1.0;" x1="327.1615" x2="334.993" y1="131.238" y2="132.8715"/><line style="stroke:#181818;stroke-width:1.0;" x1="326.549" x2="334.3805" y1="134.1748" y2="135.8083"/><line style="stroke:#181818;stroke-width:1.0;" x1="330.2606" x2="331.894" y1="135.9705" y2="128.139"/><line style="stroke:#181818;stroke-width:1.0;" x1="319.4175" x2="323.6576" y1="187.9563" y2="197.0129"/><line style="stroke:#181818;stroke-width:1.0;" x1="319.4175" x2="311.9104" y1="187.9563" y2="194.5627"/><line style="stroke:#181818;stroke-width:1.0;" x1="319.4175" x2="317.784" y1="187.9563" y2="195.7878"/><ellipse cx="320.6426" cy="182.0827" fill="none" rx="4" ry="4" style="stroke:#181818;stroke-width:1.0;"/></g><!--link Repository to Controls--><g id="link_Repository_Controls"><path codeLine="34" d="M250.0293,143.1794 C262.8993,163.1584 262.6406,162.7556 274.1166,180.5715 " fill="none" id="Repository-Controls" style="stroke:#181818;stroke-width:1.0;"/><line style="stroke:#181818;stroke-width:1.0;" x1="244.5005" x2="251.2259" y1="141.9829" y2="137.6505"/><line style="stroke:#181818;stroke-width:1.0;" x1="246.1251" x2="252.8505" y1="144.5049" y2="140.1725"/><line style="stroke:#181818;stroke-width:1.0;" x1="250.0293" x2="245.697" y1="143.1794" y2="136.454"/><line style="stroke:#181818;stroke-width:1.0;" x1="279.5318" x2="288.9081" y1="188.9784" y2="192.4548"/><line style="stroke:#181818;stroke-width:1.0;" x1="279.5318" x2="278.8199" y1="188.9784" y2="198.953"/><line style="stroke:#181818;stroke-width:1.0;" x1="279.5318" x2="283.864" y1="188.9784" y2="195.7039"/><ellipse cx="276.2827" cy="183.9343" fill="none" rx="4" ry="4" style="stroke:#181818;stroke-width:1.0;"/></g><!--SRC=[TKz93i8m3Bpd5RwZlW9UWCIv2eqFaTAuSbnGrV9tt8GbWlRaPMOy7epYPO8JtZ3GW0op0JY0TrgYxT4yZC72EUD0oGlnz4S22DHPyHIrfNj4RZFOCLf1rrgfxbpIXWt0gEjNonHguoD5ONyT1LFMkVUpnOG_VwtpZun2qQpNT-ZVxClID3JNVgOAlO7cAFLUxVOa2Zq1]--></g></svg>