<?xml version="1.0" encoding="us-ascii" standalone="no"?><svg xmlns="http://www.w3.org/2000/svg" xmlns:xlink="http://www.w3.org/1999/xlink" contentStyleType="text/css" height="332px" preserveAspectRatio="none" style="width:583px;height:332px;background:#FFFFFF;" version="1.1" viewBox="0 0 583 332" width="583px" zoomAndPan="magnify"><defs/><g><!--class users--><g id="elem_users"><rect codeLine="1" fill="#F1F1F1" height="162.0781" id="users" rx="2.5" ry="2.5" style="stroke:#181818;stroke-width:0.5;" width="186" x="7" y="7"/><ellipse cx="77.25" cy="23" fill="#ADD1B2" rx="11" ry="11" style="stroke:#181818;stroke-width:1.0;"/><path d="M76.0469,23.875 L77.5,23.875 L77.5,23.9844 C77.5,24.3906 77.5313,24.5469 77.6094,24.7031 C77.7656,24.9531 78.0469,25.1094 78.3438,25.1094 C78.5938,25.1094 78.8594,24.9688 79.0156,24.75 C79.1406,24.5938 79.1719,24.4375 79.1719,23.9844 L79.1719,22.0625 C79.1719,21.9063 79.1719,21.8594 79.1563,21.7031 C79.0938,21.2344 78.7813,20.9219 78.3281,20.9219 C78.0781,20.9219 77.8125,21.0625 77.6406,21.2813 C77.5313,21.4531 77.5,21.6094 77.5,22.0625 L77.5,22.1875 L76.0469,22.1875 L76.0469,19.7813 L80.0313,19.7813 L80.0313,20.6406 C80.0313,21.0469 80.0625,21.2188 80.1406,21.375 C80.3125,21.625 80.5938,21.7813 80.875,21.7813 C81.1406,21.7813 81.4063,21.6406 81.5781,21.4219 C81.6875,21.25 81.7188,21.1094 81.7188,20.6406 L81.7188,18.0938 L74.0938,18.0938 C73.6563,18.0938 73.5313,18.1094 73.375,18.2031 C73.125,18.3594 72.9688,18.6563 72.9688,18.9375 C72.9688,19.2188 73.1094,19.4688 73.3281,19.6406 C73.4844,19.75 73.6719,19.7813 74.0938,19.7813 L74.3438,19.7813 L74.3438,26.2969 L74.0938,26.2969 C73.6875,26.2969 73.5313,26.3125 73.375,26.4219 C73.125,26.5938 72.9688,26.8594 72.9688,27.1563 C72.9688,27.4219 73.1094,27.6719 73.3281,27.8281 C73.4688,27.9531 73.7031,28 74.0938,28 L82.0938,28 L82.0938,25.4219 C82.0938,24.9844 82.0625,24.8438 81.9844,24.6875 C81.8125,24.4375 81.5313,24.2813 81.25,24.2813 C80.9844,24.2813 80.7188,24.3906 80.5469,24.6406 C80.4375,24.7969 80.4063,24.9375 80.4063,25.4219 L80.4063,26.2969 L76.0469,26.2969 L76.0469,23.875 Z " fill="#000000"/><text fill="#000000" font-family="sans-serif" font-size="14" lengthAdjust="spacing" textLength="37" x="97.75" y="27.8467">users</text><line style="stroke:#181818;stroke-width:0.5;" x1="8" x2="192" y1="39" y2="39"/><ellipse cx="18" cy="52.6484" fill="none" rx="3" ry="3" style="stroke:#038048;stroke-width:1.0;"/><text fill="#000000" font-family="sans-serif" font-size="14" lengthAdjust="spacing" textLength="42" x="27" y="55.9951">id: int</text><ellipse cx="18" cy="68.9453" fill="none" rx="3" ry="3" style="stroke:#038048;stroke-width:1.0;"/><text fill="#000000" font-family="sans-serif" font-size="14" lengthAdjust="spacing" textLength="132" x="27" y="72.292">username: varchar</text><ellipse cx="18" cy="85.2422" fill="none" rx="3" ry="3" style="stroke:#038048;stroke-width:1.0;"/><text fill="#000000" font-family="sans-serif" font-size="14" lengthAdjust="spacing" textLength="129" x="27" y="88.5889">password: varchar</text><ellipse cx="18" cy="101.5391" fill="none" rx="3" ry="3" style="stroke:#038048;stroke-width:1.0;"/><text fill="#000000" font-family="sans-serif" font-size="14" lengthAdjust="spacing" textLength="102" x="27" y="104.8857">name: varchar</text><ellipse cx="18" cy="117.8359" fill="none" rx="3" ry="3" style="stroke:#038048;stroke-width:1.0;"/><text fill="#000000" font-family="sans-serif" font-size="14" lengthAdjust="spacing" textLength="160" x="27" y="121.1826">second_name: varchar</text><ellipse cx="18" cy="134.1328" fill="none" rx="3" ry="3" style="stroke:#038048;stroke-width:1.0;"/><text fill="#000000" font-family="sans-serif" font-size="14" lengthAdjust="spacing" textLength="123" x="27" y="137.4795">surname: varchar</text><ellipse cx="18" cy="150.4297" fill="none" rx="3" ry="3" style="stroke:#038048;stroke-width:1.0;"/><text fill="#000000" font-family="sans-serif" font-size="14" lengthAdjust="spacing" textLength="106" x="27" y="153.7764">status: varchar</text><line style="stroke:#181818;stroke-width:0.5;" x1="8" x2="192" y1="161.0781" y2="161.0781"/></g><!--class role--><g id="elem_role"><rect codeLine="11" fill="#F1F1F1" height="80.5938" id="role" rx="2.5" ry="2.5" style="stroke:#181818;stroke-width:0.5;" width="128" x="228" y="47.5"/><ellipse cx="273.75" cy="63.5" fill="#ADD1B2" rx="11" ry="11" style="stroke:#181818;stroke-width:1.0;"/><path d="M272.5469,64.375 L274,64.375 L274,64.4844 C274,64.8906 274.0313,65.0469 274.1094,65.2031 C274.2656,65.4531 274.5469,65.6094 274.8438,65.6094 C275.0938,65.6094 275.3594,65.4688 275.5156,65.25 C275.6406,65.0938 275.6719,64.9375 275.6719,64.4844 L275.6719,62.5625 C275.6719,62.4063 275.6719,62.3594 275.6563,62.2031 C275.5938,61.7344 275.2813,61.4219 274.8281,61.4219 C274.5781,61.4219 274.3125,61.5625 274.1406,61.7813 C274.0313,61.9531 274,62.1094 274,62.5625 L274,62.6875 L272.5469,62.6875 L272.5469,60.2813 L276.5313,60.2813 L276.5313,61.1406 C276.5313,61.5469 276.5625,61.7188 276.6406,61.875 C276.8125,62.125 277.0938,62.2813 277.375,62.2813 C277.6406,62.2813 277.9063,62.1406 278.0781,61.9219 C278.1875,61.75 278.2188,61.6094 278.2188,61.1406 L278.2188,58.5938 L270.5938,58.5938 C270.1563,58.5938 270.0313,58.6094 269.875,58.7031 C269.625,58.8594 269.4688,59.1563 269.4688,59.4375 C269.4688,59.7188 269.6094,59.9688 269.8281,60.1406 C269.9844,60.25 270.1719,60.2813 270.5938,60.2813 L270.8438,60.2813 L270.8438,66.7969 L270.5938,66.7969 C270.1875,66.7969 270.0313,66.8125 269.875,66.9219 C269.625,67.0938 269.4688,67.3594 269.4688,67.6563 C269.4688,67.9219 269.6094,68.1719 269.8281,68.3281 C269.9688,68.4531 270.2031,68.5 270.5938,68.5 L278.5938,68.5 L278.5938,65.9219 C278.5938,65.4844 278.5625,65.3438 278.4844,65.1875 C278.3125,64.9375 278.0313,64.7813 277.75,64.7813 C277.4844,64.7813 277.2188,64.8906 277.0469,65.1406 C276.9375,65.2969 276.9063,65.4375 276.9063,65.9219 L276.9063,66.7969 L272.5469,66.7969 L272.5469,64.375 Z " fill="#000000"/><text fill="#000000" font-family="sans-serif" font-size="14" lengthAdjust="spacing" textLength="28" x="294.25" y="68.3467">role</text><line style="stroke:#181818;stroke-width:0.5;" x1="229" x2="355" y1="79.5" y2="79.5"/><ellipse cx="239" cy="93.1484" fill="none" rx="3" ry="3" style="stroke:#038048;stroke-width:1.0;"/><text fill="#000000" font-family="sans-serif" font-size="14" lengthAdjust="spacing" textLength="42" x="248" y="96.4951">id: int</text><ellipse cx="239" cy="109.4453" fill="none" rx="3" ry="3" style="stroke:#038048;stroke-width:1.0;"/><text fill="#000000" font-family="sans-serif" font-size="14" lengthAdjust="spacing" textLength="102" x="248" y="112.792">name: varchar</text><line style="stroke:#181818;stroke-width:0.5;" x1="229" x2="355" y1="120.0938" y2="120.0938"/></g><!--class user_roles--><g id="elem_user_roles"><rect codeLine="16" fill="#F1F1F1" height="80.5938" id="user_roles" rx="2.5" ry="2.5" style="stroke:#181818;stroke-width:0.5;" width="105" x="143.5" y="237"/><ellipse cx="158.95" cy="253" fill="#ADD1B2" rx="11" ry="11" style="stroke:#181818;stroke-width:1.0;"/><path d="M157.7469,253.875 L159.2,253.875 L159.2,253.9844 C159.2,254.3906 159.2313,254.5469 159.3094,254.7031 C159.4656,254.9531 159.7469,255.1094 160.0438,255.1094 C160.2938,255.1094 160.5594,254.9688 160.7156,254.75 C160.8406,254.5938 160.8719,254.4375 160.8719,253.9844 L160.8719,252.0625 C160.8719,251.9063 160.8719,251.8594 160.8563,251.7031 C160.7938,251.2344 160.4813,250.9219 160.0281,250.9219 C159.7781,250.9219 159.5125,251.0625 159.3406,251.2813 C159.2313,251.4531 159.2,251.6094 159.2,252.0625 L159.2,252.1875 L157.7469,252.1875 L157.7469,249.7813 L161.7313,249.7813 L161.7313,250.6406 C161.7313,251.0469 161.7625,251.2188 161.8406,251.375 C162.0125,251.625 162.2938,251.7813 162.575,251.7813 C162.8406,251.7813 163.1063,251.6406 163.2781,251.4219 C163.3875,251.25 163.4188,251.1094 163.4188,250.6406 L163.4188,248.0938 L155.7938,248.0938 C155.3563,248.0938 155.2313,248.1094 155.075,248.2031 C154.825,248.3594 154.6688,248.6563 154.6688,248.9375 C154.6688,249.2188 154.8094,249.4688 155.0281,249.6406 C155.1844,249.75 155.3719,249.7813 155.7938,249.7813 L156.0438,249.7813 L156.0438,256.2969 L155.7938,256.2969 C155.3875,256.2969 155.2313,256.3125 155.075,256.4219 C154.825,256.5938 154.6688,256.8594 154.6688,257.1563 C154.6688,257.4219 154.8094,257.6719 155.0281,257.8281 C155.1688,257.9531 155.4031,258 155.7938,258 L163.7938,258 L163.7938,255.4219 C163.7938,254.9844 163.7625,254.8438 163.6844,254.6875 C163.5125,254.4375 163.2313,254.2813 162.95,254.2813 C162.6844,254.2813 162.4188,254.3906 162.2469,254.6406 C162.1375,254.7969 162.1063,254.9375 162.1063,255.4219 L162.1063,256.2969 L157.7469,256.2969 L157.7469,253.875 Z " fill="#000000"/><text fill="#000000" font-family="sans-serif" font-size="14" lengthAdjust="spacing" textLength="72" x="173.05" y="257.8467">user_roles</text><line style="stroke:#181818;stroke-width:0.5;" x1="144.5" x2="247.5" y1="269" y2="269"/><ellipse cx="154.5" cy="282.6484" fill="none" rx="3" ry="3" style="stroke:#038048;stroke-width:1.0;"/><text fill="#000000" font-family="sans-serif" font-size="14" lengthAdjust="spacing" textLength="79" x="163.5" y="285.9951">user_id: int</text><ellipse cx="154.5" cy="298.9453" fill="none" rx="3" ry="3" style="stroke:#038048;stroke-width:1.0;"/><text fill="#000000" font-family="sans-serif" font-size="14" lengthAdjust="spacing" textLength="77" x="163.5" y="302.292">role_id: int</text><line style="stroke:#181818;stroke-width:0.5;" x1="144.5" x2="247.5" y1="309.5938" y2="309.5938"/></g><!--class projects--><g id="elem_projects"><rect codeLine="21" fill="#F1F1F1" height="96.8906" id="projects" rx="2.5" ry="2.5" style="stroke:#181818;stroke-width:0.5;" width="188" x="388" y="229"/><ellipse cx="447.75" cy="245" fill="#ADD1B2" rx="11" ry="11" style="stroke:#181818;stroke-width:1.0;"/><path d="M446.5469,245.875 L448,245.875 L448,245.9844 C448,246.3906 448.0313,246.5469 448.1094,246.7031 C448.2656,246.9531 448.5469,247.1094 448.8438,247.1094 C449.0938,247.1094 449.3594,246.9688 449.5156,246.75 C449.6406,246.5938 449.6719,246.4375 449.6719,245.9844 L449.6719,244.0625 C449.6719,243.9063 449.6719,243.8594 449.6563,243.7031 C449.5938,243.2344 449.2813,242.9219 448.8281,242.9219 C448.5781,242.9219 448.3125,243.0625 448.1406,243.2813 C448.0313,243.4531 448,243.6094 448,244.0625 L448,244.1875 L446.5469,244.1875 L446.5469,241.7813 L450.5313,241.7813 L450.5313,242.6406 C450.5313,243.0469 450.5625,243.2188 450.6406,243.375 C450.8125,243.625 451.0938,243.7813 451.375,243.7813 C451.6406,243.7813 451.9063,243.6406 452.0781,243.4219 C452.1875,243.25 452.2188,243.1094 452.2188,242.6406 L452.2188,240.0938 L444.5938,240.0938 C444.1563,240.0938 444.0313,240.1094 443.875,240.2031 C443.625,240.3594 443.4688,240.6563 443.4688,240.9375 C443.4688,241.2188 443.6094,241.4688 443.8281,241.6406 C443.9844,241.75 444.1719,241.7813 444.5938,241.7813 L444.8438,241.7813 L444.8438,248.2969 L444.5938,248.2969 C444.1875,248.2969 444.0313,248.3125 443.875,248.4219 C443.625,248.5938 443.4688,248.8594 443.4688,249.1563 C443.4688,249.4219 443.6094,249.6719 443.8281,249.8281 C443.9688,249.9531 444.2031,250 444.5938,250 L452.5938,250 L452.5938,247.4219 C452.5938,246.9844 452.5625,246.8438 452.4844,246.6875 C452.3125,246.4375 452.0313,246.2813 451.75,246.2813 C451.4844,246.2813 451.2188,246.3906 451.0469,246.6406 C450.9375,246.7969 450.9063,246.9375 450.9063,247.4219 L450.9063,248.2969 L446.5469,248.2969 L446.5469,245.875 Z " fill="#000000"/><text fill="#000000" font-family="sans-serif" font-size="14" lengthAdjust="spacing" textLength="60" x="468.25" y="249.8467">projects</text><line style="stroke:#181818;stroke-width:0.5;" x1="389" x2="575" y1="261" y2="261"/><ellipse cx="399" cy="274.6484" fill="none" rx="3" ry="3" style="stroke:#038048;stroke-width:1.0;"/><text fill="#000000" font-family="sans-serif" font-size="14" lengthAdjust="spacing" textLength="42" x="408" y="277.9951">id: int</text><ellipse cx="399" cy="290.9453" fill="none" rx="3" ry="3" style="stroke:#038048;stroke-width:1.0;"/><text fill="#000000" font-family="sans-serif" font-size="14" lengthAdjust="spacing" textLength="162" x="408" y="294.292">project_name: varchar</text><ellipse cx="399" cy="307.2422" fill="none" rx="3" ry="3" style="stroke:#038048;stroke-width:1.0;"/><text fill="#000000" font-family="sans-serif" font-size="14" lengthAdjust="spacing" textLength="108" x="408" y="310.5889">statistic_id: int</text><line style="stroke:#181818;stroke-width:0.5;" x1="389" x2="575" y1="317.8906" y2="317.8906"/></g><!--class statistic--><g id="elem_statistic"><rect codeLine="27" fill="#F1F1F1" height="129.4844" id="statistic" rx="2.5" ry="2.5" style="stroke:#181818;stroke-width:0.5;" width="181" x="391.5" y="23.5"/><ellipse cx="448.25" cy="39.5" fill="#ADD1B2" rx="11" ry="11" style="stroke:#181818;stroke-width:1.0;"/><path d="M447.0469,40.375 L448.5,40.375 L448.5,40.4844 C448.5,40.8906 448.5313,41.0469 448.6094,41.2031 C448.7656,41.4531 449.0469,41.6094 449.3438,41.6094 C449.5938,41.6094 449.8594,41.4688 450.0156,41.25 C450.1406,41.0938 450.1719,40.9375 450.1719,40.4844 L450.1719,38.5625 C450.1719,38.4063 450.1719,38.3594 450.1563,38.2031 C450.0938,37.7344 449.7813,37.4219 449.3281,37.4219 C449.0781,37.4219 448.8125,37.5625 448.6406,37.7813 C448.5313,37.9531 448.5,38.1094 448.5,38.5625 L448.5,38.6875 L447.0469,38.6875 L447.0469,36.2813 L451.0313,36.2813 L451.0313,37.1406 C451.0313,37.5469 451.0625,37.7188 451.1406,37.875 C451.3125,38.125 451.5938,38.2813 451.875,38.2813 C452.1406,38.2813 452.4063,38.1406 452.5781,37.9219 C452.6875,37.75 452.7188,37.6094 452.7188,37.1406 L452.7188,34.5938 L445.0938,34.5938 C444.6563,34.5938 444.5313,34.6094 444.375,34.7031 C444.125,34.8594 443.9688,35.1563 443.9688,35.4375 C443.9688,35.7188 444.1094,35.9688 444.3281,36.1406 C444.4844,36.25 444.6719,36.2813 445.0938,36.2813 L445.3438,36.2813 L445.3438,42.7969 L445.0938,42.7969 C444.6875,42.7969 444.5313,42.8125 444.375,42.9219 C444.125,43.0938 443.9688,43.3594 443.9688,43.6563 C443.9688,43.9219 444.1094,44.1719 444.3281,44.3281 C444.4688,44.4531 444.7031,44.5 445.0938,44.5 L453.0938,44.5 L453.0938,41.9219 C453.0938,41.4844 453.0625,41.3438 452.9844,41.1875 C452.8125,40.9375 452.5313,40.7813 452.25,40.7813 C451.9844,40.7813 451.7188,40.8906 451.5469,41.1406 C451.4375,41.2969 451.4063,41.4375 451.4063,41.9219 L451.4063,42.7969 L447.0469,42.7969 L447.0469,40.375 Z " fill="#000000"/><text fill="#000000" font-family="sans-serif" font-size="14" lengthAdjust="spacing" textLength="59" x="468.75" y="44.3467">statistic</text><line style="stroke:#181818;stroke-width:0.5;" x1="392.5" x2="571.5" y1="55.5" y2="55.5"/><ellipse cx="402.5" cy="69.1484" fill="none" rx="3" ry="3" style="stroke:#038048;stroke-width:1.0;"/><text fill="#000000" font-family="sans-serif" font-size="14" lengthAdjust="spacing" textLength="42" x="411.5" y="72.4951">id: int</text><ellipse cx="402.5" cy="85.4453" fill="none" rx="3" ry="3" style="stroke:#038048;stroke-width:1.0;"/><text fill="#000000" font-family="sans-serif" font-size="14" lengthAdjust="spacing" textLength="149" x="411.5" y="88.792">sha_commit: varchar</text><ellipse cx="402.5" cy="101.7422" fill="none" rx="3" ry="3" style="stroke:#038048;stroke-width:1.0;"/><text fill="#000000" font-family="sans-serif" font-size="14" lengthAdjust="spacing" textLength="104" x="411.5" y="105.0889">patch: varchar</text><ellipse cx="402.5" cy="118.0391" fill="none" rx="3" ry="3" style="stroke:#038048;stroke-width:1.0;"/><text fill="#000000" font-family="sans-serif" font-size="14" lengthAdjust="spacing" textLength="125" x="411.5" y="121.3857">add_numbers: int</text><ellipse cx="402.5" cy="134.3359" fill="none" rx="3" ry="3" style="stroke:#038048;stroke-width:1.0;"/><text fill="#000000" font-family="sans-serif" font-size="14" lengthAdjust="spacing" textLength="155" x="411.5" y="137.6826">commit_numbers: int</text><line style="stroke:#181818;stroke-width:0.5;" x1="392.5" x2="571.5" y1="144.9844" y2="144.9844"/></g><!--link users to user_roles--><g id="link_users_user_roles"><path codeLine="35" d="M144.6369,176.1819 C156.6639,199.6719 157.4415,201.1911 167.5605,220.954 " fill="none" id="users-user_roles" style="stroke:#181818;stroke-width:1.0;"/><line style="stroke:#181818;stroke-width:1.0;" x1="139.2535" x2="146.3744" y1="174.4444" y2="170.7985"/><line style="stroke:#181818;stroke-width:1.0;" x1="140.6207" x2="147.7416" y1="177.1148" y2="173.4688"/><line style="stroke:#181818;stroke-width:1.0;" x1="144.6369" x2="140.991" y1="176.1819" y2="169.061"/><line style="stroke:#181818;stroke-width:1.0;" x1="172.118" x2="181.1046" y1="229.855" y2="234.2414"/><line style="stroke:#181818;stroke-width:1.0;" x1="172.118" x2="170.4234" y1="229.855" y2="239.7104"/><line style="stroke:#181818;stroke-width:1.0;" x1="172.118" x2="175.764" y1="229.855" y2="236.9759"/><ellipse cx="169.3835" cy="224.5144" fill="none" rx="4" ry="4" style="stroke:#181818;stroke-width:1.0;"/></g><!--link role to user_roles--><g id="link_role_user_roles"><path codeLine="36" d="M267.995,135.8848 C251.703,167.7038 240.8173,188.967 224.5333,220.7714 " fill="none" id="role-user_roles" style="stroke:#181818;stroke-width:1.0;"/><line style="stroke:#181818;stroke-width:1.0;" x1="266.2576" x2="273.3784" y1="130.5014" y2="134.1474"/><line style="stroke:#181818;stroke-width:1.0;" x1="264.8903" x2="272.0112" y1="133.1717" y2="136.8178"/><line style="stroke:#181818;stroke-width:1.0;" x1="267.995" x2="271.641" y1="135.8848" y2="128.764"/><line style="stroke:#181818;stroke-width:1.0;" x1="219.9759" x2="221.6707" y1="229.6725" y2="239.5278"/><line style="stroke:#181818;stroke-width:1.0;" x1="219.9759" x2="210.9893" y1="229.6725" y2="234.059"/><line style="stroke:#181818;stroke-width:1.0;" x1="219.9759" x2="216.33" y1="229.6725" y2="236.7934"/><ellipse cx="222.7104" cy="224.3318" fill="none" rx="4" ry="4" style="stroke:#181818;stroke-width:1.0;"/></g><!--link statistic to projects--><g id="link_statistic_projects"><path codeLine="37" d="M482,160.741 C482,185.689 482,187.808 482,210.9307 " fill="none" id="statistic-projects" style="stroke:#181818;stroke-width:1.0;"/><line style="stroke:#181818;stroke-width:1.0;" x1="478" x2="486" y1="156.741" y2="156.741"/><line style="stroke:#181818;stroke-width:1.0;" x1="478" x2="486" y1="159.741" y2="159.741"/><line style="stroke:#181818;stroke-width:1.0;" x1="482" x2="482" y1="160.741" y2="152.741"/><line style="stroke:#181818;stroke-width:1.0;" x1="482" x2="488" y1="220.9307" y2="228.9307"/><line style="stroke:#181818;stroke-width:1.0;" x1="482" x2="476" y1="220.9307" y2="228.9307"/><line style="stroke:#181818;stroke-width:1.0;" x1="482" x2="482" y1="220.9307" y2="228.9307"/><ellipse cx="482" cy="214.9307" fill="none" rx="4" ry="4" style="stroke:#181818;stroke-width:1.0;"/></g><!--SRC=[TL513i8W4Bpp2kBLz0Fz344WAKQWOHUDQVsxK6bBAt0WOOQPpCugYnhVz190URZGYT1uhbJBdcgB-PL8outgwPDxCN2VyP43l9oNPxps5vHmLh8g5QhkW1m3xEY749NJUlTGhR17gqAKfc19MSovO4Tz-h51XNpqxgu4DalAF6kDeW6rg1blPCiP1iw4CqRZ_m9G36UGorXpCBUuqDBbvt1aOefbyNIUkyvDTA-8fBi2Rs5NRgtb2m00]--></g></svg>
