<svg width="54" height="54" viewBox="0 0 54 54" fill="none" xmlns="http://www.w3.org/2000/svg">
<g clip-path="url(#clip0_106_1138)">
<path fill-rule="evenodd" clip-rule="evenodd" d="M3.19571 0.458561C1.95663 1.00904 0.832766 2.19557 0.354719 3.45789C-1.10705 7.31596 2.04287 15.7618 8.07388 24.1547L10.071 26.9341L8.07826 29.7134C2.50711 37.4845 -0.510752 44.9567 0.147868 49.3484C0.493854 51.6564 2.22985 53.386 4.55675 53.7408C9.02357 54.4216 18.5144 50.3681 25.6831 44.7178L26.9465 43.722L28.2098 44.7178C35.3785 50.3681 44.8694 54.4216 49.3362 53.7408C51.6712 53.3847 53.397 51.6588 53.7531 49.3238C54.434 44.857 50.3805 35.3661 44.7302 28.1974L43.7344 26.9341L44.7302 25.6707C46.7357 23.1262 49.5986 18.4296 51.2457 14.9819C54.1827 8.83331 54.624 4.24925 52.5104 1.84217C51.1982 0.347387 49.6107 -0.154579 46.9756 0.0913511C42.154 0.541773 34.5457 4.21859 28.2098 9.16077L26.9465 10.1462L25.6831 9.15033C23.1554 7.15796 18.4518 4.28664 15.0741 2.67395C9.88972 0.198483 5.58628 -0.60399 3.19571 0.458561ZM8.3855 4.88092C11.3495 5.57963 15.316 7.51843 19.6191 10.3719C21.6111 11.6928 23.237 12.8137 23.2326 12.8632C23.2282 12.9127 20.8932 15.2747 18.0441 18.1119L12.8638 23.2704L10.4756 19.699C7.41526 15.1227 5.5179 11.1865 4.81851 7.96414C4.36405 5.86902 4.34215 5.31315 4.69757 4.88496C5.23255 4.24015 5.66478 4.23982 8.3855 4.88092ZM49.1954 4.88496C49.8392 5.66082 48.8689 9.70889 47.2026 13.2004C46.0966 15.5179 41.3394 23.2296 41.0173 23.2276C40.9678 23.2276 38.6005 20.8963 35.7565 18.0476L30.5852 12.8679L34.169 10.4713C38.4176 7.63061 42.5216 5.58064 45.3093 4.90652C47.9741 4.26239 48.6755 4.25868 49.1954 4.88496ZM32.646 21.2346C35.4405 24.0291 37.7269 26.5241 37.7269 26.7788C37.7269 27.8838 27.9315 37.7146 26.8306 37.7146C26.0803 37.7146 16.166 27.6928 16.166 26.9344C16.166 26.0908 26.0928 16.1536 26.9353 16.1536C27.2978 16.1536 29.7211 18.3097 32.646 21.2346ZM18.1304 35.8286L23.2952 41.0087L19.7178 43.4009C15.2186 46.4094 11.1066 48.3829 7.87579 49.0839C5.5654 49.5852 5.32081 49.5852 4.82087 49.0856C3.67376 47.9385 5.47444 42.2616 8.66344 36.9721C10.2337 34.3676 12.7432 30.6301 12.913 30.6442C12.9419 30.6466 15.2897 32.9796 18.1304 35.8286ZM43.4315 34.1904C46.4857 38.7576 48.3764 42.6874 49.0805 45.932C49.6016 48.3343 49.602 48.5553 49.0849 49.0725C48.5687 49.5889 48.3464 49.5893 45.9915 49.0782C42.7129 48.3667 38.8114 46.505 34.2219 43.4622L30.5488 41.0265L35.7339 35.8334C38.586 32.9769 40.9503 30.6399 40.9884 30.6399C41.0264 30.6399 42.1257 32.2374 43.4315 34.1904Z" fill="white"/>
<path fill-rule="evenodd" clip-rule="evenodd" d="M3.19571 0.458561C1.95663 1.00904 0.832766 2.19557 0.354719 3.45789C-1.10705 7.31596 2.04287 15.7618 8.07388 24.1547L10.071 26.9341L8.07826 29.7134C2.50711 37.4845 -0.510752 44.9567 0.147868 49.3484C0.493854 51.6564 2.22985 53.386 4.55675 53.7408C9.02357 54.4216 18.5144 50.3681 25.6831 44.7178L26.9465 43.722L28.2098 44.7178C35.3785 50.3681 44.8694 54.4216 49.3362 53.7408C51.6712 53.3847 53.397 51.6588 53.7531 49.3238C54.434 44.857 50.3805 35.3661 44.7302 28.1974L43.7344 26.9341L44.7302 25.6707C46.7357 23.1262 49.5986 18.4296 51.2457 14.9819C54.1827 8.83331 54.624 4.24925 52.5104 1.84217C51.1982 0.347387 49.6107 -0.154579 46.9756 0.0913511C42.154 0.541773 34.5457 4.21859 28.2098 9.16077L26.9465 10.1462L25.6831 9.15033C23.1554 7.15796 18.4518 4.28664 15.0741 2.67395C9.88972 0.198483 5.58628 -0.60399 3.19571 0.458561ZM8.3855 4.88092C11.3495 5.57963 15.316 7.51843 19.6191 10.3719C21.6111 11.6928 23.237 12.8137 23.2326 12.8632C23.2282 12.9127 20.8932 15.2747 18.0441 18.1119L12.8638 23.2704L10.4756 19.699C7.41526 15.1227 5.5179 11.1865 4.81851 7.96414C4.36405 5.86902 4.34215 5.31315 4.69757 4.88496C5.23255 4.24015 5.66478 4.23982 8.3855 4.88092ZM49.1954 4.88496C49.8392 5.66082 48.8689 9.70889 47.2026 13.2004C46.0966 15.5179 41.3394 23.2296 41.0173 23.2276C40.9678 23.2276 38.6005 20.8963 35.7565 18.0476L30.5852 12.8679L34.169 10.4713C38.4176 7.63061 42.5216 5.58064 45.3093 4.90652C47.9741 4.26239 48.6755 4.25868 49.1954 4.88496ZM32.646 21.2346C35.4405 24.0291 37.7269 26.5241 37.7269 26.7788C37.7269 27.8838 27.9315 37.7146 26.8306 37.7146C26.0803 37.7146 16.166 27.6928 16.166 26.9344C16.166 26.0908 26.0928 16.1536 26.9353 16.1536C27.2978 16.1536 29.7211 18.3097 32.646 21.2346ZM18.1304 35.8286L23.2952 41.0087L19.7178 43.4009C15.2186 46.4094 11.1066 48.3829 7.87579 49.0839C5.5654 49.5852 5.32081 49.5852 4.82087 49.0856C3.67376 47.9385 5.47444 42.2616 8.66344 36.9721C10.2337 34.3676 12.7432 30.6301 12.913 30.6442C12.9419 30.6466 15.2897 32.9796 18.1304 35.8286ZM43.4315 34.1904C46.4857 38.7576 48.3764 42.6874 49.0805 45.932C49.6016 48.3343 49.602 48.5553 49.0849 49.0725C48.5687 49.5889 48.3464 49.5893 45.9915 49.0782C42.7129 48.3667 38.8114 46.505 34.2219 43.4622L30.5488 41.0265L35.7339 35.8334C38.586 32.9769 40.9503 30.6399 40.9884 30.6399C41.0264 30.6399 42.1257 32.2374 43.4315 34.1904Z" fill="#C5E215"/>
</g>
<defs>
<clipPath id="clip0_106_1138">
<rect width="54" height="54" fill="white"/>
</clipPath>
</defs>
</svg>
