<svg width="202" height="58" viewBox="0 0 202 58" fill="none" xmlns="http://www.w3.org/2000/svg">
<g clip-path="url(#clip0_308_352)">
<path fill-rule="evenodd" clip-rule="evenodd" d="M3.19571 2.45856C1.95663 3.00904 0.832766 4.19557 0.354719 5.45789C-1.10705 9.31596 2.04287 17.7618 8.07388 26.1547L10.071 28.9341L8.07826 31.7134C2.50711 39.4845 -0.510752 46.9567 0.147868 51.3484C0.493854 53.6564 2.22985 55.386 4.55675 55.7408C9.02357 56.4216 18.5144 52.3681 25.6831 46.7178L26.9465 45.722L28.2098 46.7178C35.3785 52.3681 44.8694 56.4216 49.3362 55.7408C51.6712 55.3847 53.397 53.6588 53.7531 51.3238C54.434 46.857 50.3805 37.3661 44.7302 30.1974L43.7344 28.9341L44.7302 27.6707C46.7357 25.1262 49.5986 20.4296 51.2457 16.9819C54.1827 10.8333 54.624 6.24925 52.5104 3.84217C51.1982 2.34739 49.6107 1.84542 46.9756 2.09135C42.154 2.54177 34.5457 6.21859 28.2098 11.1608L26.9465 12.1462L25.6831 11.1503C23.1554 9.15796 18.4518 6.28664 15.0741 4.67395C9.88972 2.19848 5.58628 1.39601 3.19571 2.45856ZM8.3855 6.88092C11.3495 7.57963 15.316 9.51843 19.6191 12.3719C21.6111 13.6928 23.237 14.8137 23.2326 14.8632C23.2282 14.9127 20.8932 17.2747 18.0441 20.1119L12.8638 25.2704L10.4756 21.699C7.41526 17.1227 5.5179 13.1865 4.81851 9.96414C4.36405 7.86902 4.34215 7.31315 4.69757 6.88496C5.23255 6.24015 5.66478 6.23982 8.3855 6.88092ZM49.1954 6.88496C49.8392 7.66082 48.8689 11.7089 47.2026 15.2004C46.0966 17.5179 41.3394 25.2296 41.0173 25.2276C40.9678 25.2276 38.6005 22.8963 35.7565 20.0476L30.5852 14.8679L34.169 12.4713C38.4176 9.63061 42.5216 7.58064 45.3093 6.90652C47.9741 6.26239 48.6755 6.25868 49.1954 6.88496ZM32.646 23.2346C35.4405 26.0291 37.7269 28.5241 37.7269 28.7788C37.7269 29.8838 27.9315 39.7146 26.8306 39.7146C26.0803 39.7146 16.166 29.6928 16.166 28.9344C16.166 28.0908 26.0928 18.1536 26.9353 18.1536C27.2978 18.1536 29.7211 20.3097 32.646 23.2346ZM18.1304 37.8286L23.2952 43.0087L19.7178 45.4009C15.2186 48.4094 11.1066 50.3829 7.87579 51.0839C5.5654 51.5852 5.32081 51.5852 4.82087 51.0856C3.67376 49.9385 5.47444 44.2616 8.66344 38.9721C10.2337 36.3676 12.7432 32.6301 12.913 32.6442C12.9419 32.6466 15.2897 34.9796 18.1304 37.8286ZM43.4315 36.1904C46.4857 40.7576 48.3764 44.6874 49.0805 47.932C49.6016 50.3343 49.602 50.5553 49.0849 51.0725C48.5687 51.5889 48.3464 51.5893 45.9915 51.0782C42.7129 50.3667 38.8114 48.505 34.2219 45.4622L30.5488 43.0265L35.7339 37.8334C38.586 34.9769 40.9503 32.6399 40.9884 32.6399C41.0264 32.6399 42.1257 34.2374 43.4315 36.1904Z" fill="white"/>
<path fill-rule="evenodd" clip-rule="evenodd" d="M3.19571 2.45856C1.95663 3.00904 0.832766 4.19557 0.354719 5.45789C-1.10705 9.31596 2.04287 17.7618 8.07388 26.1547L10.071 28.9341L8.07826 31.7134C2.50711 39.4845 -0.510752 46.9567 0.147868 51.3484C0.493854 53.6564 2.22985 55.386 4.55675 55.7408C9.02357 56.4216 18.5144 52.3681 25.6831 46.7178L26.9465 45.722L28.2098 46.7178C35.3785 52.3681 44.8694 56.4216 49.3362 55.7408C51.6712 55.3847 53.397 53.6588 53.7531 51.3238C54.434 46.857 50.3805 37.3661 44.7302 30.1974L43.7344 28.9341L44.7302 27.6707C46.7357 25.1262 49.5986 20.4296 51.2457 16.9819C54.1827 10.8333 54.624 6.24925 52.5104 3.84217C51.1982 2.34739 49.6107 1.84542 46.9756 2.09135C42.154 2.54177 34.5457 6.21859 28.2098 11.1608L26.9465 12.1462L25.6831 11.1503C23.1554 9.15796 18.4518 6.28664 15.0741 4.67395C9.88972 2.19848 5.58628 1.39601 3.19571 2.45856ZM8.3855 6.88092C11.3495 7.57963 15.316 9.51843 19.6191 12.3719C21.6111 13.6928 23.237 14.8137 23.2326 14.8632C23.2282 14.9127 20.8932 17.2747 18.0441 20.1119L12.8638 25.2704L10.4756 21.699C7.41526 17.1227 5.5179 13.1865 4.81851 9.96414C4.36405 7.86902 4.34215 7.31315 4.69757 6.88496C5.23255 6.24015 5.66478 6.23982 8.3855 6.88092ZM49.1954 6.88496C49.8392 7.66082 48.8689 11.7089 47.2026 15.2004C46.0966 17.5179 41.3394 25.2296 41.0173 25.2276C40.9678 25.2276 38.6005 22.8963 35.7565 20.0476L30.5852 14.8679L34.169 12.4713C38.4176 9.63061 42.5216 7.58064 45.3093 6.90652C47.9741 6.26239 48.6755 6.25868 49.1954 6.88496ZM32.646 23.2346C35.4405 26.0291 37.7269 28.5241 37.7269 28.7788C37.7269 29.8838 27.9315 39.7146 26.8306 39.7146C26.0803 39.7146 16.166 29.6928 16.166 28.9344C16.166 28.0908 26.0928 18.1536 26.9353 18.1536C27.2978 18.1536 29.7211 20.3097 32.646 23.2346ZM18.1304 37.8286L23.2952 43.0087L19.7178 45.4009C15.2186 48.4094 11.1066 50.3829 7.87579 51.0839C5.5654 51.5852 5.32081 51.5852 4.82087 51.0856C3.67376 49.9385 5.47444 44.2616 8.66344 38.9721C10.2337 36.3676 12.7432 32.6301 12.913 32.6442C12.9419 32.6466 15.2897 34.9796 18.1304 37.8286ZM43.4315 36.1904C46.4857 40.7576 48.3764 44.6874 49.0805 47.932C49.6016 50.3343 49.602 50.5553 49.0849 51.0725C48.5687 51.5889 48.3464 51.5893 45.9915 51.0782C42.7129 50.3667 38.8114 48.505 34.2219 45.4622L30.5488 43.0265L35.7339 37.8334C38.586 34.9769 40.9503 32.6399 40.9884 32.6399C41.0264 32.6399 42.1257 34.2374 43.4315 36.1904Z" fill="#C5E215"/>
</g>
<path d="M84.8523 8.58807V5.54545H99.1875V8.58807H93.8438V23H90.196V8.58807H84.8523ZM103.432 23.2472C102.597 23.2472 101.852 23.1023 101.199 22.8125C100.545 22.517 100.028 22.0824 99.6477 21.5085C99.2727 20.929 99.0852 20.2074 99.0852 19.3438C99.0852 18.6165 99.2188 18.0057 99.4858 17.5114C99.7528 17.017 100.116 16.6193 100.577 16.3182C101.037 16.017 101.56 15.7898 102.145 15.6364C102.736 15.483 103.355 15.375 104.003 15.3125C104.764 15.233 105.378 15.1591 105.844 15.0909C106.31 15.017 106.648 14.9091 106.858 14.767C107.068 14.625 107.173 14.4148 107.173 14.1364V14.0852C107.173 13.5455 107.003 13.1278 106.662 12.8324C106.327 12.5369 105.849 12.3892 105.23 12.3892C104.577 12.3892 104.057 12.5341 103.67 12.8239C103.284 13.108 103.028 13.4659 102.903 13.8977L99.5455 13.625C99.7159 12.8295 100.051 12.142 100.551 11.5625C101.051 10.9773 101.696 10.5284 102.486 10.2159C103.281 9.89773 104.202 9.73864 105.247 9.73864C105.974 9.73864 106.67 9.82386 107.335 9.99432C108.006 10.1648 108.599 10.429 109.116 10.7869C109.639 11.1449 110.051 11.6051 110.352 12.1676C110.653 12.7244 110.804 13.392 110.804 14.1705V23H107.361V21.1847H107.259C107.048 21.5938 106.767 21.9545 106.415 22.267C106.062 22.5739 105.639 22.8153 105.145 22.9915C104.651 23.1619 104.08 23.2472 103.432 23.2472ZM104.472 20.7415C105.006 20.7415 105.477 20.6364 105.886 20.4261C106.295 20.2102 106.616 19.9205 106.849 19.5568C107.082 19.1932 107.199 18.7812 107.199 18.321V16.9318C107.085 17.0057 106.929 17.0739 106.73 17.1364C106.537 17.1932 106.318 17.2472 106.074 17.2983C105.83 17.3437 105.585 17.3864 105.341 17.4261C105.097 17.4602 104.875 17.4915 104.676 17.5199C104.25 17.5824 103.878 17.6818 103.56 17.8182C103.241 17.9545 102.994 18.1392 102.818 18.3722C102.642 18.5994 102.554 18.8835 102.554 19.2244C102.554 19.7188 102.733 20.0966 103.091 20.358C103.455 20.6136 103.915 20.7415 104.472 20.7415ZM120.584 9.90909V12.6364H112.7V9.90909H120.584ZM114.49 6.77273H118.121V18.9773C118.121 19.3125 118.172 19.5739 118.274 19.7614C118.376 19.9432 118.518 20.071 118.7 20.1449C118.888 20.2187 119.104 20.2557 119.348 20.2557C119.518 20.2557 119.689 20.2415 119.859 20.2131C120.03 20.179 120.161 20.1534 120.251 20.1364L120.822 22.8381C120.641 22.8949 120.385 22.9602 120.055 23.0341C119.726 23.1136 119.325 23.1619 118.854 23.179C117.979 23.2131 117.212 23.0966 116.553 22.8295C115.899 22.5625 115.391 22.1477 115.027 21.5852C114.663 21.0227 114.484 20.3125 114.49 19.4545V6.77273ZM123.298 5.54545H127.849L132.656 17.2727H132.861L137.668 5.54545H142.219V23H138.639V11.6392H138.494L133.977 22.9148H131.54L127.023 11.5966H126.878V23H123.298V5.54545ZM151.106 23.2557C149.782 23.2557 148.637 22.9744 147.671 22.4119C146.711 21.8437 145.969 21.054 145.447 20.0426C144.924 19.0256 144.663 17.8466 144.663 16.5057C144.663 15.1534 144.924 13.9716 145.447 12.9602C145.969 11.9432 146.711 11.1534 147.671 10.5909C148.637 10.0227 149.782 9.73864 151.106 9.73864C152.43 9.73864 153.572 10.0227 154.532 10.5909C155.498 11.1534 156.242 11.9432 156.765 12.9602C157.288 13.9716 157.549 15.1534 157.549 16.5057C157.549 17.8466 157.288 19.0256 156.765 20.0426C156.242 21.054 155.498 21.8437 154.532 22.4119C153.572 22.9744 152.43 23.2557 151.106 23.2557ZM151.123 20.4432C151.725 20.4432 152.228 20.2727 152.631 19.9318C153.035 19.5852 153.339 19.1136 153.543 18.517C153.754 17.9205 153.859 17.2415 153.859 16.4801C153.859 15.7188 153.754 15.0398 153.543 14.4432C153.339 13.8466 153.035 13.375 152.631 13.0284C152.228 12.6818 151.725 12.5085 151.123 12.5085C150.515 12.5085 150.004 12.6818 149.589 13.0284C149.18 13.375 148.87 13.8466 148.66 14.4432C148.455 15.0398 148.353 15.7188 148.353 16.4801C148.353 17.2415 148.455 17.9205 148.66 18.517C148.87 19.1136 149.18 19.5852 149.589 19.9318C150.004 20.2727 150.515 20.4432 151.123 20.4432ZM159.978 23V5.54545H163.609V12.108H163.719C163.879 11.7557 164.109 11.3977 164.41 11.0341C164.717 10.6648 165.114 10.358 165.603 10.1136C166.097 9.86364 166.711 9.73864 167.444 9.73864C168.398 9.73864 169.279 9.98864 170.086 10.4886C170.893 10.983 171.538 11.7301 172.021 12.7301C172.504 13.7244 172.745 14.9716 172.745 16.4716C172.745 17.9318 172.509 19.1648 172.038 20.1705C171.572 21.1705 170.935 21.929 170.129 22.446C169.327 22.9574 168.43 23.2131 167.435 23.2131C166.731 23.2131 166.131 23.0966 165.637 22.8636C165.148 22.6307 164.748 22.3381 164.435 21.9858C164.123 21.6278 163.884 21.267 163.719 20.9034H163.558V23H159.978ZM163.532 16.4545C163.532 17.233 163.64 17.9119 163.856 18.4915C164.072 19.071 164.384 19.5227 164.793 19.8466C165.202 20.1648 165.7 20.3239 166.285 20.3239C166.876 20.3239 167.376 20.1619 167.785 19.8381C168.194 19.5085 168.504 19.054 168.714 18.4744C168.93 17.8892 169.038 17.2159 169.038 16.4545C169.038 15.6989 168.933 15.0341 168.722 14.4602C168.512 13.8864 168.202 13.4375 167.793 13.1136C167.384 12.7898 166.881 12.6278 166.285 12.6278C165.694 12.6278 165.194 12.7841 164.785 13.0966C164.381 13.4091 164.072 13.8523 163.856 14.4261C163.64 15 163.532 15.6761 163.532 16.4545ZM175.168 23V9.90909H178.798V23H175.168ZM176.991 8.22159C176.452 8.22159 175.989 8.04261 175.602 7.68466C175.222 7.32102 175.031 6.88636 175.031 6.38068C175.031 5.88068 175.222 5.4517 175.602 5.09375C175.989 4.73011 176.452 4.54829 176.991 4.54829C177.531 4.54829 177.991 4.73011 178.372 5.09375C178.759 5.4517 178.952 5.88068 178.952 6.38068C178.952 6.88636 178.759 7.32102 178.372 7.68466C177.991 8.04261 177.531 8.22159 176.991 8.22159ZM185.337 5.54545V23H181.707V5.54545H185.337ZM194.212 23.2557C192.865 23.2557 191.706 22.983 190.734 22.4375C189.768 21.8864 189.024 21.108 188.501 20.1023C187.979 19.0909 187.717 17.8949 187.717 16.5142C187.717 15.1676 187.979 13.9858 188.501 12.9688C189.024 11.9517 189.76 11.1591 190.709 10.5909C191.663 10.0227 192.783 9.73864 194.067 9.73864C194.93 9.73864 195.734 9.87784 196.479 10.1562C197.229 10.429 197.882 10.8409 198.439 11.392C199.001 11.9432 199.439 12.6364 199.751 13.4716C200.064 14.3011 200.22 15.2727 200.22 16.3864V17.3835H189.166V15.1335H196.803C196.803 14.6108 196.689 14.1477 196.462 13.7443C196.234 13.3409 195.919 13.0256 195.516 12.7983C195.118 12.5653 194.655 12.4489 194.126 12.4489C193.575 12.4489 193.087 12.5767 192.661 12.8324C192.24 13.0824 191.911 13.4205 191.672 13.8466C191.433 14.267 191.311 14.7358 191.305 15.2528V17.392C191.305 18.0398 191.425 18.5994 191.663 19.071C191.908 19.5426 192.251 19.9062 192.695 20.1619C193.138 20.4176 193.663 20.5455 194.271 20.5455C194.675 20.5455 195.044 20.4886 195.379 20.375C195.714 20.2614 196.001 20.0909 196.24 19.8636C196.479 19.6364 196.661 19.358 196.786 19.0284L200.143 19.25C199.973 20.0568 199.624 20.7614 199.095 21.3636C198.572 21.9602 197.896 22.4261 197.067 22.7614C196.243 23.0909 195.291 23.2557 194.212 23.2557ZM88.5256 52H84.571L90.5966 34.5455H95.3523L101.369 52H97.4148L93.0426 38.5341H92.9062L88.5256 52ZM88.2784 45.1392H97.6193V48.0199H88.2784V45.1392ZM107.033 44.4318V52H103.402V38.9091H106.862V41.2188H107.016C107.305 40.4574 107.791 39.8551 108.473 39.4119C109.155 38.9631 109.982 38.7386 110.953 38.7386C111.862 38.7386 112.655 38.9375 113.331 39.3352C114.007 39.733 114.533 40.3011 114.908 41.0398C115.283 41.7727 115.47 42.6477 115.47 43.6648V52H111.839V44.3125C111.845 43.5114 111.641 42.8864 111.226 42.4375C110.811 41.983 110.24 41.7557 109.513 41.7557C109.024 41.7557 108.592 41.8608 108.217 42.071C107.848 42.2812 107.558 42.5881 107.348 42.9915C107.143 43.3892 107.038 43.8693 107.033 44.4318ZM122.065 52.2472C121.229 52.2472 120.485 52.1023 119.832 51.8125C119.178 51.517 118.661 51.0824 118.281 50.5085C117.906 49.929 117.718 49.2074 117.718 48.3438C117.718 47.6165 117.852 47.0057 118.119 46.5114C118.386 46.017 118.749 45.6193 119.21 45.3182C119.67 45.017 120.192 44.7898 120.778 44.6364C121.369 44.483 121.988 44.375 122.636 44.3125C123.397 44.233 124.011 44.1591 124.477 44.0909C124.942 44.017 125.281 43.9091 125.491 43.767C125.701 43.625 125.806 43.4148 125.806 43.1364V43.0852C125.806 42.5455 125.636 42.1278 125.295 41.8324C124.96 41.5369 124.482 41.3892 123.863 41.3892C123.21 41.3892 122.69 41.5341 122.303 41.8239C121.917 42.108 121.661 42.4659 121.536 42.8977L118.178 42.625C118.349 41.8295 118.684 41.142 119.184 40.5625C119.684 39.9773 120.329 39.5284 121.119 39.2159C121.914 38.8977 122.835 38.7386 123.88 38.7386C124.607 38.7386 125.303 38.8239 125.968 38.9943C126.638 39.1648 127.232 39.429 127.749 39.7869C128.272 40.1449 128.684 40.6051 128.985 41.1676C129.286 41.7244 129.437 42.392 129.437 43.1705V52H125.994V50.1847H125.891C125.681 50.5938 125.4 50.9545 125.048 51.267C124.695 51.5739 124.272 51.8153 123.778 51.9915C123.283 52.1619 122.712 52.2472 122.065 52.2472ZM123.104 49.7415C123.638 49.7415 124.11 49.6364 124.519 49.4261C124.928 49.2102 125.249 48.9205 125.482 48.5568C125.715 48.1932 125.832 47.7812 125.832 47.321V45.9318C125.718 46.0057 125.562 46.0739 125.363 46.1364C125.17 46.1932 124.951 46.2472 124.707 46.2983C124.462 46.3437 124.218 46.3864 123.974 46.4261C123.729 46.4602 123.508 46.4915 123.309 46.5199C122.883 46.5824 122.511 46.6818 122.192 46.8182C121.874 46.9545 121.627 47.1392 121.451 47.3722C121.275 47.5994 121.187 47.8835 121.187 48.2244C121.187 48.7188 121.366 49.0966 121.724 49.358C122.087 49.6136 122.548 49.7415 123.104 49.7415ZM135.884 34.5455V52H132.254V34.5455H135.884ZM138.793 52V38.9091H142.423V52H138.793ZM140.616 37.2216C140.077 37.2216 139.614 37.0426 139.227 36.6847C138.847 36.321 138.656 35.8864 138.656 35.3807C138.656 34.8807 138.847 34.4517 139.227 34.0938C139.614 33.7301 140.077 33.5483 140.616 33.5483C141.156 33.5483 141.616 33.7301 141.997 34.0938C142.384 34.4517 142.577 34.8807 142.577 35.3807C142.577 35.8864 142.384 36.321 141.997 36.6847C141.616 37.0426 141.156 37.2216 140.616 37.2216ZM145.263 52V49.8352L151.673 41.9006V41.8068H145.485V38.9091H156.045V41.2699L150.028 49.0085V49.1023H156.266V52H145.263ZM164.634 52.2557C163.287 52.2557 162.128 51.983 161.156 51.4375C160.19 50.8864 159.446 50.108 158.923 49.1023C158.401 48.0909 158.139 46.8949 158.139 45.5142C158.139 44.1676 158.401 42.9858 158.923 41.9688C159.446 40.9517 160.182 40.1591 161.131 39.5909C162.085 39.0227 163.205 38.7386 164.489 38.7386C165.352 38.7386 166.156 38.8778 166.901 39.1562C167.651 39.429 168.304 39.8409 168.861 40.392C169.423 40.9432 169.861 41.6364 170.173 42.4716C170.486 43.3011 170.642 44.2727 170.642 45.3864V46.3835H159.588V44.1335H167.224C167.224 43.6108 167.111 43.1477 166.884 42.7443C166.656 42.3409 166.341 42.0256 165.938 41.7983C165.54 41.5653 165.077 41.4489 164.548 41.4489C163.997 41.4489 163.509 41.5767 163.082 41.8324C162.662 42.0824 162.332 42.4205 162.094 42.8466C161.855 43.267 161.733 43.7358 161.727 44.2528V46.392C161.727 47.0398 161.847 47.5994 162.085 48.071C162.33 48.5426 162.673 48.9062 163.116 49.1619C163.56 49.4176 164.085 49.5455 164.693 49.5455C165.097 49.5455 165.466 49.4886 165.801 49.375C166.136 49.2614 166.423 49.0909 166.662 48.8636C166.901 48.6364 167.082 48.358 167.207 48.0284L170.565 48.25C170.395 49.0568 170.045 49.7614 169.517 50.3636C168.994 50.9602 168.318 51.4261 167.489 51.7614C166.665 52.0909 165.713 52.2557 164.634 52.2557ZM173.011 52V38.9091H176.531V41.1932H176.668C176.906 40.3807 177.307 39.767 177.869 39.3523C178.432 38.9318 179.08 38.7216 179.812 38.7216C179.994 38.7216 180.19 38.733 180.401 38.7557C180.611 38.7784 180.795 38.8097 180.955 38.8494V42.071C180.784 42.0199 180.548 41.9744 180.247 41.9347C179.946 41.8949 179.67 41.875 179.42 41.875C178.886 41.875 178.409 41.9915 177.989 42.2244C177.574 42.4517 177.244 42.7699 177 43.179C176.761 43.5881 176.642 44.0597 176.642 44.5938V52H173.011Z" fill="#C5E215"/>
<defs>
<clipPath id="clip0_308_352">
<rect width="54" height="54" fill="white" transform="translate(0 2)"/>
</clipPath>
</defs>
</svg>
