<svg xmlns="http://www.w3.org/2000/svg" xmlns:xlink="http://www.w3.org/1999/xlink" contentStyleType="text/css" height="737px" preserveAspectRatio="none" style="width:762px;height:737px;background:#FFFFFF;" version="1.1" viewBox="0 0 762 737" width="762px" zoomAndPan="magnify"><defs/><g><rect fill="#FFFFFF" height="203.9297" style="stroke:#181818;stroke-width:1.0;" width="10" x="193.9595" y="112.4297"/><rect fill="#FFFFFF" height="145.6641" style="stroke:#181818;stroke-width:1.0;" width="10" x="193.9595" y="493.1563"/><rect fill="#FFFFFF" height="145.6641" style="stroke:#181818;stroke-width:1.0;" width="10" x="420.3062" y="141.5625"/><rect fill="#FFFFFF" height="87.3984" style="stroke:#181818;stroke-width:1.0;" width="10" x="420.3062" y="522.2891"/><rect fill="#FFFFFF" height="29.1328" style="stroke:#181818;stroke-width:1.0;" width="10" x="614.6963" y="170.6953"/><rect fill="#FFFFFF" height="29.1328" style="stroke:#181818;stroke-width:1.0;" width="10" x="614.6963" y="369.625"/><rect fill="#FFFFFF" height="29.1328" style="stroke:#181818;stroke-width:1.0;" width="10" x="698.0938" y="228.9609"/><rect fill="#FFFFFF" height="29.1328" style="stroke:#181818;stroke-width:1.0;" width="10" x="698.0938" y="427.8906"/><rect fill="#FFFFFF" height="29.1328" style="stroke:#181818;stroke-width:1.0;" width="10" x="698.0938" y="551.4219"/><rect fill="none" height="133.6641" style="stroke:#000000;stroke-width:1.5;" width="377.9526" x="378.1255" y="331.3594"/><line style="stroke:#181818;stroke-width:0.5;stroke-dasharray:5.0,5.0;" x1="23" x2="23" y1="81.2969" y2="656.8203"/><line style="stroke:#181818;stroke-width:0.5;stroke-dasharray:5.0,5.0;" x1="198.4048" x2="198.4048" y1="81.2969" y2="656.8203"/><line style="stroke:#181818;stroke-width:0.5;stroke-dasharray:5.0,5.0;" x1="425.1255" x2="425.1255" y1="81.2969" y2="656.8203"/><line style="stroke:#181818;stroke-width:0.5;stroke-dasharray:5.0,5.0;" x1="619.2832" x2="619.2832" y1="81.2969" y2="656.8203"/><line style="stroke:#181818;stroke-width:0.5;stroke-dasharray:5.0,5.0;" x1="702.1094" x2="702.1094" y1="81.2969" y2="656.8203"/><text fill="#000000" font-family="sans-serif" font-size="14" lengthAdjust="spacing" textLength="31.9102" x="5" y="77.9951">User</text><ellipse cx="23.9551" cy="13.5" fill="#E2E2F0" rx="8" ry="8" style="stroke:#181818;stroke-width:0.5;"/><path d="M23.9551,21.5 L23.9551,48.5 M10.9551,29.5 L36.9551,29.5 M23.9551,48.5 L10.9551,63.5 M23.9551,48.5 L36.9551,63.5 " fill="none" style="stroke:#181818;stroke-width:0.5;"/><text fill="#000000" font-family="sans-serif" font-size="14" lengthAdjust="spacing" textLength="31.9102" x="5" y="668.8154">User</text><ellipse cx="23.9551" cy="680.6172" fill="#E2E2F0" rx="8" ry="8" style="stroke:#181818;stroke-width:0.5;"/><path d="M23.9551,688.6172 L23.9551,715.6172 M10.9551,696.6172 L36.9551,696.6172 M23.9551,715.6172 L10.9551,730.6172 M23.9551,715.6172 L36.9551,730.6172 " fill="none" style="stroke:#181818;stroke-width:0.5;"/><rect fill="#E2E2F0" height="30.2969" rx="2.5" ry="2.5" style="stroke:#181818;stroke-width:0.5;" width="77.1094" x="160.4048" y="50"/><text fill="#000000" font-family="sans-serif" font-size="14" lengthAdjust="spacing" textLength="63.1094" x="167.4048" y="69.9951">Frontend</text><rect fill="#E2E2F0" height="30.2969" rx="2.5" ry="2.5" style="stroke:#181818;stroke-width:0.5;" width="77.1094" x="160.4048" y="655.8203"/><text fill="#000000" font-family="sans-serif" font-size="14" lengthAdjust="spacing" textLength="63.1094" x="167.4048" y="675.8154">Frontend</text><rect fill="#E2E2F0" height="30.2969" rx="2.5" ry="2.5" style="stroke:#181818;stroke-width:0.5;" width="74.3613" x="388.1255" y="50"/><text fill="#000000" font-family="sans-serif" font-size="14" lengthAdjust="spacing" textLength="60.3613" x="395.1255" y="69.9951">Backend</text><rect fill="#E2E2F0" height="30.2969" rx="2.5" ry="2.5" style="stroke:#181818;stroke-width:0.5;" width="74.3613" x="388.1255" y="655.8203"/><text fill="#000000" font-family="sans-serif" font-size="14" lengthAdjust="spacing" textLength="60.3613" x="395.1255" y="675.8154">Backend</text><rect fill="#E2E2F0" height="30.2969" rx="2.5" ry="2.5" style="stroke:#181818;stroke-width:0.5;" width="60.8262" x="589.2832" y="50"/><text fill="#000000" font-family="sans-serif" font-size="14" lengthAdjust="spacing" textLength="46.8262" x="596.2832" y="69.9951">Git API</text><rect fill="#E2E2F0" height="30.2969" rx="2.5" ry="2.5" style="stroke:#181818;stroke-width:0.5;" width="60.8262" x="589.2832" y="655.8203"/><text fill="#000000" font-family="sans-serif" font-size="14" lengthAdjust="spacing" textLength="46.8262" x="596.2832" y="675.8154">Git API</text><rect fill="#E2E2F0" height="30.2969" rx="2.5" ry="2.5" style="stroke:#181818;stroke-width:0.5;" width="85.9688" x="660.1094" y="50"/><text fill="#000000" font-family="sans-serif" font-size="14" lengthAdjust="spacing" textLength="71.9688" x="667.1094" y="69.9951">Data Base</text><rect fill="#E2E2F0" height="30.2969" rx="2.5" ry="2.5" style="stroke:#181818;stroke-width:0.5;" width="85.9688" x="660.1094" y="655.8203"/><text fill="#000000" font-family="sans-serif" font-size="14" lengthAdjust="spacing" textLength="71.9688" x="667.1094" y="675.8154">Data Base</text><rect fill="#FFFFFF" height="203.9297" style="stroke:#181818;stroke-width:1.0;" width="10" x="193.9595" y="112.4297"/><rect fill="#FFFFFF" height="145.6641" style="stroke:#181818;stroke-width:1.0;" width="10" x="193.9595" y="493.1563"/><rect fill="#FFFFFF" height="145.6641" style="stroke:#181818;stroke-width:1.0;" width="10" x="420.3062" y="141.5625"/><rect fill="#FFFFFF" height="87.3984" style="stroke:#181818;stroke-width:1.0;" width="10" x="420.3062" y="522.2891"/><rect fill="#FFFFFF" height="29.1328" style="stroke:#181818;stroke-width:1.0;" width="10" x="614.6963" y="170.6953"/><rect fill="#FFFFFF" height="29.1328" style="stroke:#181818;stroke-width:1.0;" width="10" x="614.6963" y="369.625"/><rect fill="#FFFFFF" height="29.1328" style="stroke:#181818;stroke-width:1.0;" width="10" x="698.0938" y="228.9609"/><rect fill="#FFFFFF" height="29.1328" style="stroke:#181818;stroke-width:1.0;" width="10" x="698.0938" y="427.8906"/><rect fill="#FFFFFF" height="29.1328" style="stroke:#181818;stroke-width:1.0;" width="10" x="698.0938" y="551.4219"/><polygon fill="#181818" points="181.9595,108.4297,191.9595,112.4297,181.9595,116.4297,185.9595,112.4297" style="stroke:#181818;stroke-width:1.0;"/><line style="stroke:#181818;stroke-width:1.0;" x1="23.9551" x2="187.9595" y1="112.4297" y2="112.4297"/><text fill="#000000" font-family="sans-serif" font-size="13" lengthAdjust="spacing" textLength="66.1553" x="30.9551" y="107.3638">Send data</text><polygon fill="#181818" points="408.3062,137.5625,418.3062,141.5625,408.3062,145.5625,412.3062,141.5625" style="stroke:#181818;stroke-width:1.0;"/><line style="stroke:#181818;stroke-width:1.0;" x1="203.9595" x2="414.3062" y1="141.5625" y2="141.5625"/><text fill="#000000" font-family="sans-serif" font-size="13" lengthAdjust="spacing" textLength="86.8042" x="210.9595" y="136.4966">Request data</text><polygon fill="#181818" points="602.6963,166.6953,612.6963,170.6953,602.6963,174.6953,606.6963,170.6953" style="stroke:#181818;stroke-width:1.0;"/><line style="stroke:#181818;stroke-width:1.0;" x1="430.3062" x2="608.6963" y1="170.6953" y2="170.6953"/><text fill="#000000" font-family="sans-serif" font-size="13" lengthAdjust="spacing" textLength="118.187" x="437.3062" y="165.6294">Request to Git API</text><polygon fill="#181818" points="441.3062,195.8281,431.3062,199.8281,441.3062,203.8281,437.3062,199.8281" style="stroke:#181818;stroke-width:1.0;"/><line style="stroke:#181818;stroke-width:1.0;stroke-dasharray:2.0,2.0;" x1="435.3062" x2="618.6963" y1="199.8281" y2="199.8281"/><text fill="#000000" font-family="sans-serif" font-size="13" lengthAdjust="spacing" textLength="113.3247" x="447.3062" y="194.7622">Data from Git API</text><polygon fill="#181818" points="686.0938,224.9609,696.0938,228.9609,686.0938,232.9609,690.0938,228.9609" style="stroke:#181818;stroke-width:1.0;"/><line style="stroke:#181818;stroke-width:1.0;" x1="430.3062" x2="692.0938" y1="228.9609" y2="228.9609"/><text fill="#000000" font-family="sans-serif" font-size="13" lengthAdjust="spacing" textLength="65.3237" x="437.3062" y="223.895">Save data</text><polygon fill="#181818" points="441.3062,254.0938,431.3062,258.0938,441.3062,262.0938,437.3062,258.0938" style="stroke:#181818;stroke-width:1.0;"/><line style="stroke:#181818;stroke-width:1.0;stroke-dasharray:2.0,2.0;" x1="435.3062" x2="702.0938" y1="258.0938" y2="258.0938"/><text fill="#000000" font-family="sans-serif" font-size="13" lengthAdjust="spacing" textLength="135.5605" x="447.3062" y="253.0278">Confirmation of save</text><polygon fill="#181818" points="214.9595,283.2266,204.9595,287.2266,214.9595,291.2266,210.9595,287.2266" style="stroke:#181818;stroke-width:1.0;"/><line style="stroke:#181818;stroke-width:1.0;stroke-dasharray:2.0,2.0;" x1="208.9595" x2="424.3062" y1="287.2266" y2="287.2266"/><text fill="#000000" font-family="sans-serif" font-size="13" lengthAdjust="spacing" textLength="128.1465" x="220.9595" y="282.1606">Response with data</text><polygon fill="#181818" points="34.9551,312.3594,24.9551,316.3594,34.9551,320.3594,30.9551,316.3594" style="stroke:#181818;stroke-width:1.0;"/><line style="stroke:#181818;stroke-width:1.0;stroke-dasharray:2.0,2.0;" x1="28.9551" x2="197.9595" y1="316.3594" y2="316.3594"/><text fill="#000000" font-family="sans-serif" font-size="13" lengthAdjust="spacing" textLength="81.3325" x="40.9551" y="311.2935">Display data</text><path d="M378.1255,331.3594 L447.5767,331.3594 L447.5767,338.4922 L437.5767,348.4922 L378.1255,348.4922 L378.1255,331.3594 " fill="#EEEEEE" style="stroke:#000000;stroke-width:1.5;"/><rect fill="none" height="133.6641" style="stroke:#000000;stroke-width:1.5;" width="377.9526" x="378.1255" y="331.3594"/><text fill="#000000" font-family="sans-serif" font-size="13" font-weight="bold" lengthAdjust="spacing" textLength="24.4512" x="393.1255" y="344.4263">opt</text><text fill="#000000" font-family="sans-serif" font-size="11" font-weight="bold" lengthAdjust="spacing" textLength="146.5073" x="462.5767" y="343.5698">[Once in a fixed period]</text><polygon fill="#181818" points="602.6963,365.625,612.6963,369.625,602.6963,373.625,606.6963,369.625" style="stroke:#181818;stroke-width:1.0;"/><line style="stroke:#181818;stroke-width:1.0;" x1="425.3062" x2="608.6963" y1="369.625" y2="369.625"/><text fill="#000000" font-family="sans-serif" font-size="13" lengthAdjust="spacing" textLength="170.3901" x="432.3062" y="364.5591">Periodic request to Git API</text><polygon fill="#181818" points="436.3062,394.7578,426.3062,398.7578,436.3062,402.7578,432.3062,398.7578" style="stroke:#181818;stroke-width:1.0;"/><line style="stroke:#181818;stroke-width:1.0;stroke-dasharray:2.0,2.0;" x1="430.3062" x2="618.6963" y1="398.7578" y2="398.7578"/><text fill="#000000" font-family="sans-serif" font-size="13" lengthAdjust="spacing" textLength="113.3247" x="442.3062" y="393.6919">Data from Git API</text><polygon fill="#181818" points="686.0938,423.8906,696.0938,427.8906,686.0938,431.8906,690.0938,427.8906" style="stroke:#181818;stroke-width:1.0;"/><line style="stroke:#181818;stroke-width:1.0;" x1="425.3062" x2="692.0938" y1="427.8906" y2="427.8906"/><text fill="#000000" font-family="sans-serif" font-size="13" lengthAdjust="spacing" textLength="80.4946" x="432.3062" y="422.8247">Update data</text><polygon fill="#181818" points="436.3062,453.0234,426.3062,457.0234,436.3062,461.0234,432.3062,457.0234" style="stroke:#181818;stroke-width:1.0;"/><line style="stroke:#181818;stroke-width:1.0;stroke-dasharray:2.0,2.0;" x1="430.3062" x2="702.0938" y1="457.0234" y2="457.0234"/><text fill="#000000" font-family="sans-serif" font-size="13" lengthAdjust="spacing" textLength="150.9346" x="442.3062" y="451.9575">Confirmation of update</text><polygon fill="#181818" points="181.9595,489.1563,191.9595,493.1563,181.9595,497.1563,185.9595,493.1563" style="stroke:#181818;stroke-width:1.0;"/><line style="stroke:#181818;stroke-width:1.0;" x1="23.9551" x2="187.9595" y1="493.1563" y2="493.1563"/><text fill="#000000" font-family="sans-serif" font-size="13" lengthAdjust="spacing" textLength="151.0044" x="30.9551" y="488.0903">Request COCOMO data</text><polygon fill="#181818" points="408.3062,518.2891,418.3062,522.2891,408.3062,526.2891,412.3062,522.2891" style="stroke:#181818;stroke-width:1.0;"/><line style="stroke:#181818;stroke-width:1.0;" x1="203.9595" x2="414.3062" y1="522.2891" y2="522.2891"/><text fill="#000000" font-family="sans-serif" font-size="13" lengthAdjust="spacing" textLength="151.0044" x="210.9595" y="517.2231">Request COCOMO data</text><polygon fill="#181818" points="686.0938,547.4219,696.0938,551.4219,686.0938,555.4219,690.0938,551.4219" style="stroke:#181818;stroke-width:1.0;"/><line style="stroke:#181818;stroke-width:1.0;" x1="430.3062" x2="692.0938" y1="551.4219" y2="551.4219"/><text fill="#000000" font-family="sans-serif" font-size="13" lengthAdjust="spacing" textLength="152.3882" x="437.3062" y="546.356">Retrieve COCOMO data</text><polygon fill="#181818" points="441.3062,576.5547,431.3062,580.5547,441.3062,584.5547,437.3062,580.5547" style="stroke:#181818;stroke-width:1.0;"/><line style="stroke:#181818;stroke-width:1.0;stroke-dasharray:2.0,2.0;" x1="435.3062" x2="702.0938" y1="580.5547" y2="580.5547"/><text fill="#000000" font-family="sans-serif" font-size="13" lengthAdjust="spacing" textLength="93.4819" x="447.3062" y="575.4888">COCOMO data</text><polygon fill="#181818" points="214.9595,605.6875,204.9595,609.6875,214.9595,613.6875,210.9595,609.6875" style="stroke:#181818;stroke-width:1.0;"/><line style="stroke:#181818;stroke-width:1.0;stroke-dasharray:2.0,2.0;" x1="208.9595" x2="424.3062" y1="609.6875" y2="609.6875"/><text fill="#000000" font-family="sans-serif" font-size="13" lengthAdjust="spacing" textLength="192.3467" x="220.9595" y="604.6216">Response with COCOMO data</text><polygon fill="#181818" points="34.9551,634.8203,24.9551,638.8203,34.9551,642.8203,30.9551,638.8203" style="stroke:#181818;stroke-width:1.0;"/><line style="stroke:#181818;stroke-width:1.0;stroke-dasharray:2.0,2.0;" x1="28.9551" x2="197.9595" y1="638.8203" y2="638.8203"/><text fill="#000000" font-family="sans-serif" font-size="13" lengthAdjust="spacing" textLength="145.5327" x="40.9551" y="633.7544">Display COCOMO data</text><!--SRC=[dPDDJiCm48NtESMe6rQzG1T891681KrLr0DOyGGiMjlOanPkppZDhvkAGXQ9uypdUVFq8aeo3dOUNMA58rKgApJ1epEQKCl9PYhAZtXlyQG87ZRF2n0UUCtBwVTSa63IOrEHfqaIci7olk-nWbU-W-J2H9IaZe9m4D0j0j4AMC4MFslq536TllOPYBEY0I03hU01QrMV7x0Szsd4LyuSUafYp8swvIdF8euOwUAXytHwS6PqfTn1a38QJ0MUgV7PZFJdJgpQehT6UuIJelTpdn7MEJ2Ond3mcqTHtkx5zmNI6vqOIr3e4a5fuAdL5qgmw9IH2V0ru-gc-QfAS9Vs1YIsAkpTPdEelBGwaX7itbaP2fgf9YtPmV3-c_5rmyVz66uikOCrdc1ltdZ6Yl-JhCYAbm8EHjRxu1EX2upHCw7k8jSo_udtB3gJyc345iafvEpDGdCH7DNzFNbNw1i2U8NiY1y0]--></g></svg>