<?xml version="1.0" encoding="us-ascii" standalone="no"?><svg xmlns="http://www.w3.org/2000/svg" xmlns:xlink="http://www.w3.org/1999/xlink" contentStyleType="text/css" height="397px" preserveAspectRatio="none" style="width:716px;height:397px;background:#FFFFFF;" version="1.1" viewBox="0 0 716 397" width="716px" zoomAndPan="magnify"><defs/><g><!--cluster TatMobileAnalyzer--><g id="cluster_TatMobileAnalyzer"><path d="M8.5,6 L161.5,6 A3.75,3.75 0 0 1 164,8.5 L171,28.2969 L548.5,28.2969 A2.5,2.5 0 0 1 551,30.7969 L551,387.5 A2.5,2.5 0 0 1 548.5,390 L8.5,390 A2.5,2.5 0 0 1 6,387.5 L6,8.5 A2.5,2.5 0 0 1 8.5,6 " fill="none" style="stroke:#000000;stroke-width:1.5;"/><line style="stroke:#000000;stroke-width:1.5;" x1="6" x2="171" y1="28.2969" y2="28.2969"/><text fill="#000000" font-family="sans-serif" font-size="14" font-weight="bold" lengthAdjust="spacing" textLength="152" x="10" y="20.9951">TatMobileAnalyzer</text></g><!--cluster service--><g id="cluster_service"><path d="M252.5,65 L310.5,65 A3.75,3.75 0 0 1 313,67.5 L320,87.2969 L500.5,87.2969 A2.5,2.5 0 0 1 503,89.7969 L503,175.5 A2.5,2.5 0 0 1 500.5,178 L252.5,178 A2.5,2.5 0 0 1 250,175.5 L250,67.5 A2.5,2.5 0 0 1 252.5,65 " fill="none" style="stroke:#000000;stroke-width:1.5;"/><line style="stroke:#000000;stroke-width:1.5;" x1="250" x2="320" y1="87.2969" y2="87.2969"/><text fill="#000000" font-family="sans-serif" font-size="14" font-weight="bold" lengthAdjust="spacing" textLength="57" x="254" y="79.9951">service</text></g><!--entity config--><g id="elem_config"><rect fill="#F1F1F1" height="46.2969" rx="2.5" ry="2.5" style="stroke:#181818;stroke-width:0.5;" width="85" x="294.5" y="320"/><rect fill="#F1F1F1" height="10" style="stroke:#181818;stroke-width:0.5;" width="15" x="359.5" y="325"/><rect fill="#F1F1F1" height="2" style="stroke:#181818;stroke-width:0.5;" width="4" x="357.5" y="327"/><rect fill="#F1F1F1" height="2" style="stroke:#181818;stroke-width:0.5;" width="4" x="357.5" y="331"/><text fill="#000000" font-family="sans-serif" font-size="14" lengthAdjust="spacing" textLength="45" x="309.5" y="352.9951">config</text></g><!--entity controllers--><g id="elem_controllers"><rect fill="#F1F1F1" height="46.2969" rx="2.5" ry="2.5" style="stroke:#181818;stroke-width:0.5;" width="118" x="120" y="214"/><rect fill="#F1F1F1" height="10" style="stroke:#181818;stroke-width:0.5;" width="15" x="218" y="219"/><rect fill="#F1F1F1" height="2" style="stroke:#181818;stroke-width:0.5;" width="4" x="216" y="221"/><rect fill="#F1F1F1" height="2" style="stroke:#181818;stroke-width:0.5;" width="4" x="216" y="225"/><text fill="#000000" font-family="sans-serif" font-size="14" lengthAdjust="spacing" textLength="78" x="135" y="246.9951">controllers</text></g><!--entity models--><g id="elem_models"><rect fill="#F1F1F1" height="46.2969" rx="2.5" ry="2.5" style="stroke:#181818;stroke-width:0.5;" width="92" x="131" y="108"/><rect fill="#F1F1F1" height="10" style="stroke:#181818;stroke-width:0.5;" width="15" x="203" y="113"/><rect fill="#F1F1F1" height="2" style="stroke:#181818;stroke-width:0.5;" width="4" x="201" y="115"/><rect fill="#F1F1F1" height="2" style="stroke:#181818;stroke-width:0.5;" width="4" x="201" y="119"/><text fill="#000000" font-family="sans-serif" font-size="14" lengthAdjust="spacing" textLength="52" x="146" y="140.9951">models</text></g><!--entity dto--><g id="elem_dto"><rect fill="#F1F1F1" height="46.2969" rx="2.5" ry="2.5" style="stroke:#181818;stroke-width:0.5;" width="65" x="30.5" y="108"/><rect fill="#F1F1F1" height="10" style="stroke:#181818;stroke-width:0.5;" width="15" x="75.5" y="113"/><rect fill="#F1F1F1" height="2" style="stroke:#181818;stroke-width:0.5;" width="4" x="73.5" y="115"/><rect fill="#F1F1F1" height="2" style="stroke:#181818;stroke-width:0.5;" width="4" x="73.5" y="119"/><text fill="#000000" font-family="sans-serif" font-size="14" lengthAdjust="spacing" textLength="25" x="45.5" y="140.9951">dto</text></g><!--entity repositories--><g id="elem_repositories"><rect fill="#F1F1F1" height="46.2969" rx="2.5" ry="2.5" style="stroke:#181818;stroke-width:0.5;" width="127" x="273.5" y="214"/><rect fill="#F1F1F1" height="10" style="stroke:#181818;stroke-width:0.5;" width="15" x="380.5" y="219"/><rect fill="#F1F1F1" height="2" style="stroke:#181818;stroke-width:0.5;" width="4" x="378.5" y="221"/><rect fill="#F1F1F1" height="2" style="stroke:#181818;stroke-width:0.5;" width="4" x="378.5" y="225"/><text fill="#000000" font-family="sans-serif" font-size="14" lengthAdjust="spacing" textLength="87" x="288.5" y="246.9951">repositories</text></g><!--entity StatisticServiceImpl--><g id="elem_StatisticServiceImpl"><rect fill="#F1F1F1" height="46.2969" rx="2.5" ry="2.5" style="stroke:#181818;stroke-width:0.5;" width="186" x="293" y="108"/><rect fill="#F1F1F1" height="10" style="stroke:#181818;stroke-width:0.5;" width="15" x="459" y="113"/><rect fill="#F1F1F1" height="2" style="stroke:#181818;stroke-width:0.5;" width="4" x="457" y="115"/><rect fill="#F1F1F1" height="2" style="stroke:#181818;stroke-width:0.5;" width="4" x="457" y="119"/><text fill="#000000" font-family="sans-serif" font-size="14" lengthAdjust="spacing" textLength="146" x="308" y="140.9951">StatisticServiceImpl</text></g><!--entity Data Storage--><g id="elem_Data Storage"><rect fill="#F1F1F1" height="46.2969" rx="2.5" ry="2.5" style="stroke:#181818;stroke-width:0.5;" width="135" x="575.5" y="214"/><rect fill="#F1F1F1" height="10" style="stroke:#181818;stroke-width:0.5;" width="15" x="690.5" y="219"/><rect fill="#F1F1F1" height="2" style="stroke:#181818;stroke-width:0.5;" width="4" x="688.5" y="221"/><rect fill="#F1F1F1" height="2" style="stroke:#181818;stroke-width:0.5;" width="4" x="688.5" y="225"/><text fill="#000000" font-family="sans-serif" font-size="14" lengthAdjust="spacing" textLength="95" x="590.5" y="246.9951">Data Storage</text></g><!--link service to controllers--><g id="link_service_controllers"><path d="M260.1467,178.2254 C260.1026,178.4324 260.0574,178.6392 260.0111,178.8457 C259.9187,179.2587 259.822,179.6707 259.721,180.0813 C259.317,181.7241 258.8438,183.3467 258.2934,184.9373 C257.1926,188.1184 255.7829,191.1713 254,194 C248.987,201.954 246.8387,205.1313 239.0007,210.5353 " fill="none" id="service-to-controllers" style="stroke:#181818;stroke-width:1.0;"/><polygon fill="#181818" points="234.061,213.941,243.7411,212.1255,238.1774,211.1029,239.2001,205.5392,234.061,213.941" style="stroke:#181818;stroke-width:1.0;"/></g><!--link service to repositories--><g id="link_service_repositories"><path d="M268.3661,178.245 C268.4523,178.4519 268.5393,178.6586 268.627,178.865 C268.8023,179.2777 268.9805,179.6894 269.1615,180.0998 C269.8857,181.7414 270.656,183.3626 271.4751,184.9515 C273.1135,188.1292 274.9475,191.1774 277,194 C282.459,201.507 284.8839,204.5468 292.4239,210.2048 " fill="none" id="service-to-repositories" style="stroke:#181818;stroke-width:1.0;"/><polygon fill="#181818" points="297.223,213.806,292.4252,205.2048,293.2238,210.805,287.6236,211.6036,297.223,213.806" style="stroke:#181818;stroke-width:1.0;"/></g><!--link repositories to config--><g id="link_repositories_config"><path d="M337,260.056 C337,277.705 337,296.335 337,313.9761 " fill="none" id="repositories-to-config" style="stroke:#181818;stroke-width:1.0;"/><polygon fill="#181818" points="337,319.9761,341,310.9761,337,314.9761,333,310.9761,337,319.9761" style="stroke:#181818;stroke-width:1.0;"/></g><!--link TatMobileAnalyzer to Data Storage--><g id="link_TatMobileAnalyzer_Data Storage"><path d="M551.0129,140.3333 C551.0899,140.4133 551.1674,140.4939 551.2453,140.575 C551.5571,140.8992 551.8762,141.2312 552.2026,141.5706 C557.4249,147.0017 564.4891,154.3484 572.3846,162.5598 C588.1758,178.9825 603.1339,194.539 617.4924,209.472 " fill="none" id="TatMobileAnalyzer-to-Data Storage" style="stroke:#181818;stroke-width:1.0;"/><polygon fill="#181818" points="621.651,213.797,618.2964,204.537,618.1855,210.1928,612.5297,210.0819,621.651,213.797" style="stroke:#181818;stroke-width:1.0;"/></g><!--SRC=[PO_D2i8m3CVlUugo-rv14Bnuy5HlfOVOnH7ibj86GSLtj-kgC9TBFlx9Bqa0TuC1LNi6EV65FEudy8ydnbQz6gMCu-bAWwsXHFOUOohvo3tw9Uo5YuyOE95m92n2-E8JnZivNA3PZ1OGIa9EByfn37wUU3SpfxPRrNMxxUAr-hzpNVWHoXUPRZQVrfu322YTn_B1zWC0]--></g></svg>