<svg xmlns="http://www.w3.org/2000/svg" xmlns:xlink="http://www.w3.org/1999/xlink" contentStyleType="text/css" height="880px" preserveAspectRatio="none" style="width:945px;height:880px;background:#FFFFFF;" version="1.1" viewBox="0 0 945 880" width="945px" zoomAndPan="magnify"><defs/><g><!--cluster Backend System--><g id="cluster_Backend System"><path d="M8.5,233.59 L139.9023,233.59 A3.75,3.75 0 0 1 142.4023,236.09 L149.4023,255.8869 L935.5,255.8869 A2.5,2.5 0 0 1 938,258.3869 L938,744.28 A2.5,2.5 0 0 1 935.5,746.78 L8.5,746.78 A2.5,2.5 0 0 1 6,744.28 L6,236.09 A2.5,2.5 0 0 1 8.5,233.59 " fill="none" style="stroke:#000000;stroke-width:1.5;"/><line style="stroke:#000000;stroke-width:1.5;" x1="6" x2="149.4023" y1="255.8869" y2="255.8869"/><text fill="#000000" font-family="sans-serif" font-size="14" font-weight="bold" lengthAdjust="spacing" textLength="130.4023" x="10" y="248.5851">Backend System</text></g><!--cluster Statistical Analysis Module--><g id="cluster_Statistical Analysis Module"><path d="M32.5,276.59 L246.8018,276.59 A3.75,3.75 0 0 1 249.3018,279.09 L256.3018,298.8869 L510.5,298.8869 A2.5,2.5 0 0 1 513,301.3869 L513,583.98 A2.5,2.5 0 0 1 510.5,586.48 L32.5,586.48 A2.5,2.5 0 0 1 30,583.98 L30,279.09 A2.5,2.5 0 0 1 32.5,276.59 " fill="#ADD8E6" style="stroke:#000000;stroke-width:1.5;"/><line style="stroke:#000000;stroke-width:1.5;" x1="30" x2="256.3018" y1="298.8869" y2="298.8869"/><text fill="#000000" font-family="sans-serif" font-size="14" font-weight="bold" lengthAdjust="spacing" textLength="213.3018" x="34" y="291.5851">Statistical Analysis Module</text></g><!--cluster COCOMO II Module--><g id="cluster_COCOMO II Module"><path d="M539.5,276.59 L688.6826,276.59 A3.75,3.75 0 0 1 691.1826,279.09 L698.1826,298.8869 L911.5,298.8869 A2.5,2.5 0 0 1 914,301.3869 L914,583.98 A2.5,2.5 0 0 1 911.5,586.48 L539.5,586.48 A2.5,2.5 0 0 1 537,583.98 L537,279.09 A2.5,2.5 0 0 1 539.5,276.59 " fill="#90EE90" style="stroke:#000000;stroke-width:1.5;"/><line style="stroke:#000000;stroke-width:1.5;" x1="537" x2="698.1826" y1="298.8869" y2="298.8869"/><text fill="#000000" font-family="sans-serif" font-size="14" font-weight="bold" lengthAdjust="spacing" textLength="148.1826" x="541" y="291.5851">COCOMO II Module</text></g><!--cluster Database--><g id="cluster_Database"><path d="M475,620.48 C475,610.48 557,610.48 557,610.48 C557,610.48 639,610.48 639,620.48 L639,712.78 C639,722.78 557,722.78 557,722.78 C557,722.78 475,722.78 475,712.78 L475,620.48 " fill="#FFFFE0" style="stroke:#181818;stroke-width:1.0;"/><path d="M475,620.48 C475,630.48 557,630.48 557,630.48 C557,630.48 639,630.48 639,620.48 " fill="none" style="stroke:#181818;stroke-width:1.0;"/><text fill="#000000" font-family="sans-serif" font-size="14" font-weight="bold" lengthAdjust="spacing" textLength="74.5049" x="519.7476" y="645.4751">Database</text></g><!--cluster Frontend Module--><g id="cluster_Frontend Module"><path d="M425.5,6 L561.4346,6 A3.75,3.75 0 0 1 563.9346,8.5 L570.9346,28.2969 L797.5,28.2969 A2.5,2.5 0 0 1 800,30.7969 L800,207.09 A2.5,2.5 0 0 1 797.5,209.59 L425.5,209.59 A2.5,2.5 0 0 1 423,207.09 L423,8.5 A2.5,2.5 0 0 1 425.5,6 " fill="#FFB6C1" style="stroke:#000000;stroke-width:1.5;"/><line style="stroke:#000000;stroke-width:1.5;" x1="423" x2="570.9346" y1="28.2969" y2="28.2969"/><text fill="#000000" font-family="sans-serif" font-size="14" font-weight="bold" lengthAdjust="spacing" textLength="134.9346" x="427" y="20.9951">Frontend Module</text></g><!--entity StatisticalAnalysisController--><g id="elem_StatisticalAnalysisController"><rect fill="#F1F1F1" height="46.2969" rx="2.5" ry="2.5" style="stroke:#181818;stroke-width:0.5;" width="236.0273" x="260.99" y="311.59"/><rect fill="#F1F1F1" height="10" style="stroke:#181818;stroke-width:0.5;" width="15" x="477.0173" y="316.59"/><rect fill="#F1F1F1" height="2" style="stroke:#181818;stroke-width:0.5;" width="4" x="475.0173" y="318.59"/><rect fill="#F1F1F1" height="2" style="stroke:#181818;stroke-width:0.5;" width="4" x="475.0173" y="322.59"/><text fill="#000000" font-family="sans-serif" font-size="14" lengthAdjust="spacing" textLength="196.0273" x="275.99" y="344.5851">StatisticalAnalysisController</text></g><!--entity StatisticalAnalysisDTO--><g id="elem_StatisticalAnalysisDTO"><rect fill="#F1F1F1" height="46.2969" rx="2.5" ry="2.5" style="stroke:#181818;stroke-width:0.5;" width="197.2061" x="46.4" y="417.89"/><rect fill="#F1F1F1" height="10" style="stroke:#181818;stroke-width:0.5;" width="15" x="223.6061" y="422.89"/><rect fill="#F1F1F1" height="2" style="stroke:#181818;stroke-width:0.5;" width="4" x="221.6061" y="424.89"/><rect fill="#F1F1F1" height="2" style="stroke:#181818;stroke-width:0.5;" width="4" x="221.6061" y="428.89"/><text fill="#000000" font-family="sans-serif" font-size="14" lengthAdjust="spacing" textLength="157.2061" x="61.4" y="450.8851">StatisticalAnalysisDTO</text></g><!--entity StatisticalAnalysisModel--><g id="elem_StatisticalAnalysisModel"><rect fill="#F1F1F1" height="46.2969" rx="2.5" ry="2.5" style="stroke:#181818;stroke-width:0.5;" width="208.8887" x="285.56" y="524.19"/><rect fill="#F1F1F1" height="10" style="stroke:#181818;stroke-width:0.5;" width="15" x="474.4487" y="529.19"/><rect fill="#F1F1F1" height="2" style="stroke:#181818;stroke-width:0.5;" width="4" x="472.4487" y="531.19"/><rect fill="#F1F1F1" height="2" style="stroke:#181818;stroke-width:0.5;" width="4" x="472.4487" y="535.19"/><text fill="#000000" font-family="sans-serif" font-size="14" lengthAdjust="spacing" textLength="168.8887" x="300.56" y="557.1851">StatisticalAnalysisModel</text></g><!--entity StatisticalAnalysisService--><g id="elem_StatisticalAnalysisService"><rect fill="#F1F1F1" height="46.2969" rx="2.5" ry="2.5" style="stroke:#181818;stroke-width:0.5;" width="218.5957" x="278.7" y="417.89"/><rect fill="#F1F1F1" height="10" style="stroke:#181818;stroke-width:0.5;" width="15" x="477.2957" y="422.89"/><rect fill="#F1F1F1" height="2" style="stroke:#181818;stroke-width:0.5;" width="4" x="475.2957" y="424.89"/><rect fill="#F1F1F1" height="2" style="stroke:#181818;stroke-width:0.5;" width="4" x="475.2957" y="428.89"/><text fill="#000000" font-family="sans-serif" font-size="14" lengthAdjust="spacing" textLength="178.5957" x="293.7" y="450.8851">StatisticalAnalysisService</text></g><!--entity COCOMO2Controller--><g id="elem_COCOMO2Controller"><rect fill="#F1F1F1" height="46.2969" rx="2.5" ry="2.5" style="stroke:#181818;stroke-width:0.5;" width="182.7686" x="552.62" y="311.59"/><rect fill="#F1F1F1" height="10" style="stroke:#181818;stroke-width:0.5;" width="15" x="715.3886" y="316.59"/><rect fill="#F1F1F1" height="2" style="stroke:#181818;stroke-width:0.5;" width="4" x="713.3886" y="318.59"/><rect fill="#F1F1F1" height="2" style="stroke:#181818;stroke-width:0.5;" width="4" x="713.3886" y="322.59"/><text fill="#000000" font-family="sans-serif" font-size="14" lengthAdjust="spacing" textLength="142.7686" x="567.62" y="344.5851">COCOMO2Controller</text></g><!--entity COCOMO2DTO--><g id="elem_COCOMO2DTO"><rect fill="#F1F1F1" height="46.2969" rx="2.5" ry="2.5" style="stroke:#181818;stroke-width:0.5;" width="143.9473" x="553.03" y="417.89"/><rect fill="#F1F1F1" height="10" style="stroke:#181818;stroke-width:0.5;" width="15" x="676.9773" y="422.89"/><rect fill="#F1F1F1" height="2" style="stroke:#181818;stroke-width:0.5;" width="4" x="674.9773" y="424.89"/><rect fill="#F1F1F1" height="2" style="stroke:#181818;stroke-width:0.5;" width="4" x="674.9773" y="428.89"/><text fill="#000000" font-family="sans-serif" font-size="14" lengthAdjust="spacing" textLength="103.9473" x="568.03" y="450.8851">COCOMO2DTO</text></g><!--entity COCOMO2Model--><g id="elem_COCOMO2Model"><rect fill="#F1F1F1" height="46.2969" rx="2.5" ry="2.5" style="stroke:#181818;stroke-width:0.5;" width="155.6299" x="645.19" y="524.19"/><rect fill="#F1F1F1" height="10" style="stroke:#181818;stroke-width:0.5;" width="15" x="780.8199" y="529.19"/><rect fill="#F1F1F1" height="2" style="stroke:#181818;stroke-width:0.5;" width="4" x="778.8199" y="531.19"/><rect fill="#F1F1F1" height="2" style="stroke:#181818;stroke-width:0.5;" width="4" x="778.8199" y="535.19"/><text fill="#000000" font-family="sans-serif" font-size="14" lengthAdjust="spacing" textLength="115.6299" x="660.19" y="557.1851">COCOMO2Model</text></g><!--entity COCOMO2Service--><g id="elem_COCOMO2Service"><rect fill="#F1F1F1" height="46.2969" rx="2.5" ry="2.5" style="stroke:#181818;stroke-width:0.5;" width="165.3369" x="732.33" y="417.89"/><rect fill="#F1F1F1" height="10" style="stroke:#181818;stroke-width:0.5;" width="15" x="877.6669" y="422.89"/><rect fill="#F1F1F1" height="2" style="stroke:#181818;stroke-width:0.5;" width="4" x="875.6669" y="424.89"/><rect fill="#F1F1F1" height="2" style="stroke:#181818;stroke-width:0.5;" width="4" x="875.6669" y="428.89"/><text fill="#000000" font-family="sans-serif" font-size="14" lengthAdjust="spacing" textLength="125.3369" x="747.33" y="450.8851">COCOMO2Service</text></g><!--entity Data Storage--><g id="elem_Data Storage"><rect fill="#F1F1F1" height="46.2969" rx="2.5" ry="2.5" style="stroke:#181818;stroke-width:0.5;" width="132.6543" x="490.67" y="660.48"/><rect fill="#F1F1F1" height="10" style="stroke:#181818;stroke-width:0.5;" width="15" x="603.3243" y="665.48"/><rect fill="#F1F1F1" height="2" style="stroke:#181818;stroke-width:0.5;" width="4" x="601.3243" y="667.48"/><rect fill="#F1F1F1" height="2" style="stroke:#181818;stroke-width:0.5;" width="4" x="601.3243" y="671.48"/><text fill="#000000" font-family="sans-serif" font-size="14" lengthAdjust="spacing" textLength="92.6543" x="505.67" y="693.4751">Data Storage</text></g><!--entity User Interface--><g id="elem_User Interface"><rect fill="#F1F1F1" height="46.2969" rx="2.5" ry="2.5" style="stroke:#181818;stroke-width:0.5;" width="139.0391" x="536.48" y="41"/><rect fill="#F1F1F1" height="10" style="stroke:#181818;stroke-width:0.5;" width="15" x="655.5191" y="46"/><rect fill="#F1F1F1" height="2" style="stroke:#181818;stroke-width:0.5;" width="4" x="653.5191" y="48"/><rect fill="#F1F1F1" height="2" style="stroke:#181818;stroke-width:0.5;" width="4" x="653.5191" y="52"/><text fill="#000000" font-family="sans-serif" font-size="14" lengthAdjust="spacing" textLength="99.0391" x="551.48" y="73.9951">User Interface</text></g><!--entity API Integration--><g id="elem_API Integration"><rect fill="#F1F1F1" height="46.2969" rx="2.5" ry="2.5" style="stroke:#181818;stroke-width:0.5;" width="143.7422" x="439.13" y="147.3"/><rect fill="#F1F1F1" height="10" style="stroke:#181818;stroke-width:0.5;" width="15" x="562.8722" y="152.3"/><rect fill="#F1F1F1" height="2" style="stroke:#181818;stroke-width:0.5;" width="4" x="560.8722" y="154.3"/><rect fill="#F1F1F1" height="2" style="stroke:#181818;stroke-width:0.5;" width="4" x="560.8722" y="158.3"/><text fill="#000000" font-family="sans-serif" font-size="14" lengthAdjust="spacing" textLength="103.7422" x="454.13" y="180.2951">API Integration</text></g><!--entity Data Visualization--><g id="elem_Data Visualization"><rect fill="#F1F1F1" height="46.2969" rx="2.5" ry="2.5" style="stroke:#181818;stroke-width:0.5;" width="166.6152" x="617.69" y="147.3"/><rect fill="#F1F1F1" height="10" style="stroke:#181818;stroke-width:0.5;" width="15" x="764.3052" y="152.3"/><rect fill="#F1F1F1" height="2" style="stroke:#181818;stroke-width:0.5;" width="4" x="762.3052" y="154.3"/><rect fill="#F1F1F1" height="2" style="stroke:#181818;stroke-width:0.5;" width="4" x="762.3052" y="158.3"/><text fill="#000000" font-family="sans-serif" font-size="14" lengthAdjust="spacing" textLength="126.6152" x="632.69" y="180.2951">Data Visualization</text></g><!--link StatisticalAnalysisController to StatisticalAnalysisDTO--><g id="link_StatisticalAnalysisController_StatisticalAnalysisDTO"><path d="M328.23,358.37 C288.98,375.87 240.3803,397.5275 201.1603,415.0075 " fill="none" id="StatisticalAnalysisController-to-StatisticalAnalysisDTO" style="stroke:#181818;stroke-width:1.0;"/><polygon fill="#181818" points="195.68,417.45,205.5289,417.4398,200.2469,415.4146,202.2721,410.1326,195.68,417.45" style="stroke:#181818;stroke-width:1.0;"/></g><!--link StatisticalAnalysisController to StatisticalAnalysisService--><g id="link_StatisticalAnalysisController_StatisticalAnalysisService"><path d="M380.95,358.37 C382.46,375.87 384.0236,393.9923 385.5336,411.4723 " fill="none" id="StatisticalAnalysisController-to-StatisticalAnalysisService" style="stroke:#181818;stroke-width:1.0;"/><polygon fill="#181818" points="386.05,417.45,389.2606,408.1391,385.6197,412.4686,381.2903,408.8276,386.05,417.45" style="stroke:#181818;stroke-width:1.0;"/></g><!--link StatisticalAnalysisService to StatisticalAnalysisModel--><g id="link_StatisticalAnalysisService_StatisticalAnalysisModel"><path d="M388.43,464.67 C388.77,482.16 389.1133,500.2711 389.4533,517.7511 " fill="none" id="StatisticalAnalysisService-to-StatisticalAnalysisModel" style="stroke:#181818;stroke-width:1.0;"/><polygon fill="#181818" points="389.57,523.75,393.3942,514.6739,389.4728,518.7509,385.3957,514.8295,389.57,523.75" style="stroke:#181818;stroke-width:1.0;"/></g><!--link StatisticalAnalysisModel to Data Storage--><g id="link_StatisticalAnalysisModel_Data Storage"><path d="M417.95,570.81 C448.78,595.6 493.414,631.5004 524.284,656.3204 " fill="none" id="StatisticalAnalysisModel-to-Data Storage" style="stroke:#181818;stroke-width:1.0;"/><polygon fill="#181818" points="528.96,660.08,524.4524,651.3232,525.0633,656.947,519.4395,657.5579,528.96,660.08" style="stroke:#181818;stroke-width:1.0;"/></g><!--link COCOMO2Controller to COCOMO2DTO--><g id="link_COCOMO2Controller_COCOMO2DTO"><path d="M639.88,358.37 C636.69,375.87 633.3772,394.0675 630.1872,411.5475 " fill="none" id="COCOMO2Controller-to-COCOMO2DTO" style="stroke:#181818;stroke-width:1.0;"/><polygon fill="#181818" points="629.11,417.45,634.6608,409.3143,630.0076,412.5312,626.7908,407.8781,629.11,417.45" style="stroke:#181818;stroke-width:1.0;"/></g><!--link COCOMO2Controller to COCOMO2Service--><g id="link_COCOMO2Controller_COCOMO2Service"><path d="M681.1,358.37 C709.79,375.87 744.1771,396.8466 772.8471,414.3266 " fill="none" id="COCOMO2Controller-to-COCOMO2Service" style="stroke:#181818;stroke-width:1.0;"/><polygon fill="#181818" points="777.97,417.45,772.3679,409.3496,773.7009,414.8471,768.2033,416.1801,777.97,417.45" style="stroke:#181818;stroke-width:1.0;"/></g><!--link COCOMO2Service to COCOMO2Model--><g id="link_COCOMO2Service_COCOMO2Model"><path d="M795.04,464.67 C779.61,482.16 762.3207,501.7718 746.8907,519.2518 " fill="none" id="COCOMO2Service-to-COCOMO2Model" style="stroke:#181818;stroke-width:1.0;"/><polygon fill="#181818" points="742.92,523.75,751.8748,519.6498,746.2289,520.0015,745.8772,514.3556,742.92,523.75" style="stroke:#181818;stroke-width:1.0;"/></g><!--link COCOMO2Model to Data Storage--><g id="link_COCOMO2Model_Data Storage"><path d="M695.22,570.81 C664.57,595.6 620.2141,631.4856 589.5441,656.3056 " fill="none" id="COCOMO2Model-to-Data Storage" style="stroke:#181818;stroke-width:1.0;"/><polygon fill="#181818" points="584.88,660.08,594.3924,657.5277,588.7667,656.9346,589.3598,651.309,584.88,660.08" style="stroke:#181818;stroke-width:1.0;"/></g><!--link User Interface to API Integration--><g id="link_User Interface_API Integration"><path d="M585.39,87.78 C569.45,105.27 551.5402,124.9341 535.6102,142.4241 " fill="none" id="User Interface-to-API Integration" style="stroke:#181818;stroke-width:1.0;"/><polygon fill="#181818" points="531.57,146.86,540.5875,142.8997,534.9368,143.1635,534.6731,137.5128,531.57,146.86" style="stroke:#181818;stroke-width:1.0;"/></g><!--link API Integration to StatisticalAnalysisController--><g id="link_API Integration_StatisticalAnalysisController"><path d="M492.65,194.01 C467.5,224.93 426.3766,275.4958 401.1966,306.4458 " fill="none" id="API Integration-to-StatisticalAnalysisController" style="stroke:#181818;stroke-width:1.0;"/><polygon fill="#181818" points="397.41,311.1,406.1927,306.643,400.5655,307.2215,399.987,301.5943,397.41,311.1" style="stroke:#181818;stroke-width:1.0;"/></g><!--link API Integration to COCOMO2Controller--><g id="link_API Integration_COCOMO2Controller"><path d="M529.49,194.01 C554.83,224.93 596.2763,275.5097 621.6463,306.4597 " fill="none" id="API Integration-to-COCOMO2Controller" style="stroke:#181818;stroke-width:1.0;"/><polygon fill="#181818" points="625.45,311.1,622.838,301.6038,622.2803,307.2331,616.651,306.6754,625.45,311.1" style="stroke:#181818;stroke-width:1.0;"/></g><!--link User Interface to Data Visualization--><g id="link_User Interface_Data Visualization"><path d="M626.61,87.78 C642.55,105.27 660.4598,124.9341 676.3898,142.4241 " fill="none" id="User Interface-to-Data Visualization" style="stroke:#181818;stroke-width:1.0;"/><polygon fill="#181818" points="680.43,146.86,677.3269,137.5128,677.0632,143.1635,671.4125,142.8997,680.43,146.86" style="stroke:#181818;stroke-width:1.0;"/></g><rect fill="#DDDDDD" height="95.4844" id="_legend" rx="7.5" ry="7.5" style="stroke:#000000;stroke-width:1.0;" width="177.8564" x="741.1436" y="764.78"/><text fill="#000000" font-family="sans-serif" font-size="14" lengthAdjust="spacing" textLength="36.5518" x="746.1436" y="784.7751">Color</text><text fill="#000000" font-family="sans-serif" font-size="14" lengthAdjust="spacing" textLength="50.9072" x="782.6953" y="784.7751">Module</text><rect fill="#ADD8E6" height="16.2969" style="stroke:none;stroke-width:1.0;" width="36.5518" x="746.1436" y="788.0769"/><text fill="#000000" font-family="sans-serif" font-size="14" lengthAdjust="spacing" textLength="4.4502" x="746.1436" y="801.072">&#160;</text><text fill="#000000" font-family="sans-serif" font-size="14" lengthAdjust="spacing" textLength="131.3047" x="782.6953" y="801.072">Statistical Analysis</text><rect fill="#90EE90" height="16.2969" style="stroke:none;stroke-width:1.0;" width="36.5518" x="746.1436" y="804.3738"/><text fill="#000000" font-family="sans-serif" font-size="14" lengthAdjust="spacing" textLength="4.4502" x="746.1436" y="817.3689">&#160;</text><text fill="#000000" font-family="sans-serif" font-size="14" lengthAdjust="spacing" textLength="77.3965" x="782.6953" y="817.3689">COCOMO II</text><rect fill="#FFFFE0" height="16.2969" style="stroke:none;stroke-width:1.0;" width="36.5518" x="746.1436" y="820.6706"/><text fill="#000000" font-family="sans-serif" font-size="14" lengthAdjust="spacing" textLength="4.4502" x="746.1436" y="833.6657">&#160;</text><text fill="#000000" font-family="sans-serif" font-size="14" lengthAdjust="spacing" textLength="66.8008" x="782.6953" y="833.6657">Database</text><rect fill="#FFB6C1" height="16.2969" style="stroke:none;stroke-width:1.0;" width="36.5518" x="746.1436" y="836.9675"/><text fill="#000000" font-family="sans-serif" font-size="14" lengthAdjust="spacing" textLength="4.4502" x="746.1436" y="849.9626">&#160;</text><text fill="#000000" font-family="sans-serif" font-size="14" lengthAdjust="spacing" textLength="63.1094" x="782.6953" y="849.9626">Frontend</text><line style="stroke:#000000;stroke-width:1.0;" x1="746.1436" x2="914" y1="771.78" y2="771.78"/><line style="stroke:#000000;stroke-width:1.0;" x1="746.1436" x2="914" y1="788.0769" y2="788.0769"/><line style="stroke:#000000;stroke-width:1.0;" x1="746.1436" x2="914" y1="804.3738" y2="804.3738"/><line style="stroke:#000000;stroke-width:1.0;" x1="746.1436" x2="914" y1="820.6706" y2="820.6706"/><line style="stroke:#000000;stroke-width:1.0;" x1="746.1436" x2="914" y1="836.9675" y2="836.9675"/><line style="stroke:#000000;stroke-width:1.0;" x1="746.1436" x2="914" y1="853.2644" y2="853.2644"/><line style="stroke:#000000;stroke-width:1.0;" x1="746.1436" x2="746.1436" y1="771.78" y2="853.2644"/><line style="stroke:#000000;stroke-width:1.0;" x1="782.6953" x2="782.6953" y1="771.78" y2="853.2644"/><line style="stroke:#000000;stroke-width:1.0;" x1="914" x2="914" y1="771.78" y2="853.2644"/><!--SRC=[dLHTQyCW57tFhv3ikIzx7e4sPIEmaaAsmIXxSEbj9dMngDtePl_xJDGsfYQ5-I39lUVgkH_77Iwtk08Kp_G7r6jK78I4pnZzHaYldNCN4aiY92anHTCQquCW0YtOUayXHZUFfFgGCxe76zQiLIV4HQIibfnH2lnj53T_oiS1-cQWuv02-1SfmO2ExUwdbEPfliXHblNoUE00TJSH0xmDahS-dx0rzabQyn2nDPRu7GlDR6w_7ADNe9HzToar25H8ndKcxg1Z59rok-UQRDDEFxKbgRVscDMp08uoZU8RxDYifikijLLSrvFLrjhUzaB47bFoOntwjYiTHfD9CjpT_mQVgZVc78osBHbscKY_l55W0Woks_rhe3Fndi53EOBURvXKhu46TD702yjWRRhpFH0LK4AOHcXY8WfLCvAycSHsi5JAAEFApAWofhlpOvAeqAlZurgn9kgaPTzhX9Ce9oZVswWXKKugAjAReVW7]--></g></svg>