<?xml version="1.0" encoding="us-ascii" standalone="no"?><svg xmlns="http://www.w3.org/2000/svg" xmlns:xlink="http://www.w3.org/1999/xlink" contentStyleType="text/css" height="223px" preserveAspectRatio="none" style="width:799px;height:223px;background:#FFFFFF;" version="1.1" viewBox="0 0 799 223" width="799px" zoomAndPan="magnify"><defs/><g><!--cluster Main Page--><g id="cluster_Main Page"><rect fill="none" height="95" rx="2.5" ry="2.5" style="stroke:#181818;stroke-width:1.0;" width="450" x="111" y="7"/><text fill="#000000" font-family="sans-serif" font-size="14" font-weight="bold" lengthAdjust="spacing" textLength="83" x="294.5" y="21.9951">Main Page</text></g><!--cluster Git Repository--><g id="cluster_Git Repository"><rect fill="none" height="91" rx="2.5" ry="2.5" style="stroke:#181818;stroke-width:1.0;" width="206" x="343" y="126"/><text fill="#000000" font-family="sans-serif" font-size="14" font-weight="bold" lengthAdjust="spacing" textLength="118" x="387" y="140.9951">Git Repository</text></g><!--cluster Project Statistics Page--><g id="cluster_Project Statistics Page"><rect fill="none" height="81" rx="2.5" ry="2.5" style="stroke:#181818;stroke-width:1.0;" width="204" x="589" y="14"/><text fill="#000000" font-family="sans-serif" font-size="14" font-weight="bold" lengthAdjust="spacing" textLength="188" x="597" y="28.9951">Project Statistics Page</text></g><g id="elem_Add New Project"><ellipse cx="206.7839" cy="65.8568" fill="#F1F1F1" rx="79.7839" ry="18.3568" style="stroke:#181818;stroke-width:0.5;"/><text fill="#000000" font-family="sans-serif" font-size="14" lengthAdjust="spacing" textLength="118" x="146.0356" y="69.2613">Add New Project</text></g><g id="elem_View Project Statistics"><ellipse cx="446.0673" cy="64.2135" fill="#F1F1F1" rx="99.0673" ry="22.2135" style="stroke:#181818;stroke-width:0.5;"/><text fill="#000000" font-family="sans-serif" font-size="14" lengthAdjust="spacing" textLength="162" x="365.0673" y="67.0601">View Project Statistics</text></g><g id="elem_Project Repository"><ellipse cx="446.0368" cy="180.8074" fill="#F1F1F1" rx="87.0368" ry="19.8074" style="stroke:#181818;stroke-width:0.5;"/><text fill="#000000" font-family="sans-serif" font-size="14" lengthAdjust="spacing" textLength="135" x="378.5368" y="183.654">Project Repository</text></g><g id="elem_Statistics"><ellipse cx="690.813" cy="63.7771" fill="#F1F1F1" rx="60.813" ry="14.7771" style="stroke:#181818;stroke-width:0.5;"/><text fill="#000000" font-family="sans-serif" font-size="14" lengthAdjust="spacing" textLength="68" x="653.813" y="67.5247">Statistics</text></g><!--entity M--><g id="elem_M"><ellipse cx="36.5" cy="36.5" fill="#F1F1F1" rx="8" ry="8" style="stroke:#181818;stroke-width:0.5;"/><path d="M36.5,44.5 L36.5,71.5 M23.5,52.5 L49.5,52.5 M36.5,71.5 L23.5,86.5 M36.5,71.5 L49.5,86.5 " fill="none" style="stroke:#181818;stroke-width:0.5;"/><text fill="#000000" font-family="sans-serif" font-size="14" lengthAdjust="spacing" textLength="61" x="6" y="100.9951">Manager</text></g><!--link M to Add New Project--><g id="link_M_Add New Project"><path d="M67.2365,66 C83.9592,66 105.7035,66 126.999,66 " fill="none" id="M-Add New Project" style="stroke:#181818;stroke-width:1.0;"/></g><!--link Add New Project to View Project Statistics--><g id="link_Add New Project_View Project Statistics"><path d="M287.247,65.331 C306.355,65.17 320.9992,65.0468 340.8562,64.8788 " fill="none" id="Add New Project-to-View Project Statistics" style="stroke:#181818;stroke-width:1.0;"/><polygon fill="#181818" points="346.856,64.828,337.8225,60.9043,341.8562,64.8703,337.8902,68.904,346.856,64.828" style="stroke:#181818;stroke-width:1.0;"/></g><!--link Add New Project to Project Repository--><g id="link_Add New Project_Project Repository"><path d="M242.462,82.722 C286.497,104.089 357.0319,138.3151 402.3619,160.3107 " fill="none" id="Add New Project-to-Project Repository" style="stroke:#181818;stroke-width:1.0;"/><polygon fill="#181818" points="407.76,162.93,401.4091,155.4023,403.2616,160.7472,397.9167,162.5997,407.76,162.93" style="stroke:#181818;stroke-width:1.0;"/></g><!--link View Project Statistics to Statistics--><g id="link_View Project Statistics_Statistics"><path d="M545.137,64 C573.852,64 598.377,64 623.964,64 " fill="none" id="View Project Statistics-to-Statistics" style="stroke:#181818;stroke-width:1.0;"/><polygon fill="#181818" points="629.964,64,620.964,60,624.964,64,620.964,68,629.964,64" style="stroke:#181818;stroke-width:1.0;"/></g><!--SRC=[TO_12i8m44Jl-OgXf_RGNn0yUOeK1UzB4kDAIIHPA2B-kr4fjPRkSMVspMplpWA9IEml0il96U4Ob28ZCK5J8EyIA4EhjqR1zmwL9WxeYbJXeL16esrHRwt5tWteKhmMS_EH5jjYtQ0-yRJ2KKWu2vlSgAVwJTgnuE1kCNFfSn_ZLfWZRZhunoq3Ps-ijlhoPpLV]--></g></svg>